<svg width="370" height="370" viewBox="0 0 370 370" fill="none" xmlns="http://www.w3.org/2000/svg">
<path d="M185 370C287.173 370 370 287.173 370 185C370 82.8273 287.173 0 185 0C82.8273 0 0 82.8273 0 185C0 287.173 82.8273 370 185 370Z" fill="#FF0000"/>
<path d="M185 370C287.173 370 370 287.173 370 185C370 82.8273 287.173 0 185 0C82.8273 0 0 82.8273 0 185C0 287.173 82.8273 370 185 370Z" fill="#FF0000"/>
<mask id="mask0" mask-type="alpha" maskUnits="userSpaceOnUse" x="0" y="0" width="370" height="370">
<path fill-rule="evenodd" clip-rule="evenodd" d="M185 0C287.2 0 370 82.8 370 185C370 287.2 287.2 370 185 370C82.8 370 0 287.2 0 185C0 82.8 82.8 0 185 0Z" fill="white"/>
</mask>
<g mask="url(#mask0)">
<path fill-rule="evenodd" clip-rule="evenodd" d="M177.9 223.4C158.2 223.4 143 208 143 188.3C143 169 158.1 153.3 177.9 153.3C196.9 153.3 212.4 169 212.4 188.3C212.4 208 196.9 223.4 177.9 223.4ZM231.1 102.3H225.3L222 117.7C212.9 99.5 185.8 97.7 171.2 97.7C125.7 97.7 86 141.5 86 201.7C86 250.1 114.9 280.5 151.2 280.5C171.5 280.5 188.7 275.8 202.9 258.9L199.2 275.9H207.5H256.4L282.5 102.4H231.1V102.3Z" fill="white"/>
</g>
</svg>
