<svg width="32" height="32" viewBox="0 0 32 32" fill="none" xmlns="http://www.w3.org/2000/svg">
<path d="M3.21429 0H19.2857C20.1382 0 20.9558 0.337142 21.5586 0.937258C22.1614 1.53737 22.5 2.35131 22.5 3.2C22.5 4.04869 22.1614 4.86263 21.5586 5.46274C20.9558 6.06286 20.1382 6.4 19.2857 6.4H3.21429C2.3618 6.4 1.54424 6.06286 0.941442 5.46274C0.338647 4.86263 0 4.04869 0 3.2C0 2.35131 0.338647 1.53737 0.941442 0.937258C1.54424 0.337142 2.3618 0 3.21429 0ZM12.7143 25.6H28.7857C29.6382 25.6 30.4558 25.9371 31.0586 26.5373C31.6614 27.1374 32 27.9513 32 28.8C32 29.6487 31.6614 30.4626 31.0586 31.0627C30.4558 31.6629 29.6382 32 28.7857 32H12.7143C11.8618 32 11.0442 31.6629 10.4414 31.0627C9.83865 30.4626 9.5 29.6487 9.5 28.8C9.5 27.9513 9.83865 27.1374 10.4414 26.5373C11.0442 25.9371 11.8618 25.6 12.7143 25.6ZM3.21429 12.8H28.7857C29.6382 12.8 30.4558 13.1371 31.0586 13.7373C31.6614 14.3374 32 15.1513 32 16C32 16.8487 31.6614 17.6626 31.0586 18.2627C30.4558 18.8629 29.6382 19.2 28.7857 19.2H3.21429C2.3618 19.2 1.54424 18.8629 0.941442 18.2627C0.338647 17.6626 0 16.8487 0 16C0 15.1513 0.338647 14.3374 0.941442 13.7373C1.54424 13.1371 2.3618 12.8 3.21429 12.8Z" fill="white"/>
</svg>
