<?xml version="1.0" encoding="UTF-8"?>
<!DOCTYPE svg PUBLIC "-//W3C//DTD SVG 1.1//EN" "http://www.w3.org/Graphics/SVG/1.1/DTD/svg11.dtd">
<!-- Creator: CorelDRAW 2021 (64-Bit) -->
<svg xmlns="http://www.w3.org/2000/svg" xml:space="preserve" width="101.713mm" height="71.5756mm" version="1.1" style="shape-rendering:geometricPrecision; text-rendering:geometricPrecision; image-rendering:optimizeQuality; fill-rule:evenodd; clip-rule:evenodd"
viewBox="0 0 10157.08 7147.54"
 xmlns:xlink="http://www.w3.org/1999/xlink"
 xmlns:xodm="http://www.corel.com/coreldraw/odm/2003">
 <defs>
  <style type="text/css">
   <![CDATA[
    .fil3 {fill:none}
    .fil0 {fill:#1A1A1A}
    .fil1 {fill:#552DC2}
    .fil2 {fill:#E6E6E6}
    .fil4 {fill:white}
    .fil5 {fill:#552DC2;fill-rule:nonzero}
   ]]>
  </style>
 </defs>
 <g id="Layer_x0020_1">
  <metadata id="CorelCorpID_0Corel-Layer"/>
  <g id="_2078844586096">
   <g>
    <path class="fil0" d="M2941.4 495.36c81.06,-60.01 181.38,-95.5 289.97,-95.5 71.23,0 138.9,15.28 199.89,42.73l0 0 0.08 0.03c5.09,2.3 10.15,4.67 15.15,7.14 40.52,17.16 87.58,21.85 134.61,3.67 6.61,-3.28 13.33,-6.35 20.16,-9.25l0.08 -0.04 0 0.01c45.52,-19.25 95.58,-29.9 148.1,-29.9 125.83,0 237.39,61.06 306.72,155.16 102.84,-44.85 216.36,-69.77 335.72,-69.77 116.23,0 226.93,23.59 327.62,66.23 43.83,-221.68 239.31,-388.86 473.86,-388.86 209.5,0 387.82,133.4 454.74,319.87l0.02 -0.01 0.13 0.42c1.54,4.3 3,8.64 4.42,12.98 15.73,40.19 45.48,62.08 104.13,70.17 8.34,0.72 16.65,1.55 24.92,2.5l0.27 0.02 -0.01 0c180.02,20.75 343.03,97.27 471.41,211.82 117.25,7.9 222.89,58.16 301.77,135.58 82.41,-67.8 187.97,-108.53 303.02,-108.53 138.92,0 263.96,59.38 351.19,154.12 60.16,-75.02 152.57,-123.07 256.19,-123.07 102.15,0 193.4,46.65 253.59,119.83 22.91,-75.46 93.02,-130.4 175.97,-130.4 101.55,0 183.88,82.33 183.88,183.89 0,58.75 -27.56,111.07 -70.45,144.74 40.19,46.1 64.55,106.36 64.55,172.32 0,26.58 -3.96,52.24 -11.31,76.42l-0.01 0.01c-1.18,3.87 -2.45,7.72 -3.8,11.52 -10.52,47.35 43.77,86.77 99.81,70.96 35.06,-15.03 73.7,-23.36 114.27,-23.36 160.42,0 290.48,130.08 290.48,290.5 0,94.03 -44.72,177.62 -114.01,230.72 -13.29,132.42 -125.07,235.82 -260.98,235.82 -109.66,0 -203.59,-67.31 -242.78,-162.83 -5.94,0.35 -11.92,0.53 -17.94,0.53 -166.19,0 -300.9,-134.71 -300.9,-300.88 0,-27.7 3.74,-54.52 10.76,-80l-0.01 0 0.02 -0.04c2.39,-8.7 5.16,-17.23 8.3,-25.58 21.06,-77.33 -6.5,-119.25 -40.09,-116.74 -2.91,0.62 -5.85,1.18 -8.82,1.65 -8.23,1.3 -16.67,1.97 -25.25,1.97 -43.12,0 -82.27,-16.98 -111.14,-44.62 -7.51,-0.14 -14.96,-0.52 -22.34,-1.15l0 0.01 -0.04 -0.01c-8.37,-0.72 -16.64,-1.74 -24.81,-3.07 -37.11,-1.73 -52.7,13.6 -51.63,46.39 1,6.63 1.77,13.36 2.29,20.15l0 0.02c0.52,6.8 0.78,13.68 0.78,20.62 0,127.05 -88,233.55 -206.35,261.91 -43.81,89.42 -135.71,151.02 -242,151.02 -98.04,0 -183.85,-52.4 -230.96,-130.7 -14.6,2.46 -29.6,3.74 -44.9,3.74 -17.2,0 -34.01,-1.61 -50.31,-4.69l-0.02 -0.01 -0.04 0c-1.92,-0.37 -3.83,-0.74 -5.74,-1.15 -25.41,-3.74 -37.7,13.42 -30.12,39.42l1.47 4.48 0.03 0.09 -0.01 0c12.74,39.59 19.62,81.81 19.62,125.62 0,15.73 -0.89,31.25 -2.62,46.51 -1.82,24.32 8.38,37.09 27.8,42.36l2.43 0.61 0.28 0.06 -0.01 0.01c172.06,44.36 299.21,200.57 299.21,386.48 0,209.41 -161.29,381.14 -366.42,397.79l0.03 0.02 -0.29 0.01c-4.28,0.34 -8.58,0.63 -12.9,0.84 -38.73,4.54 -52.92,26.74 -46.24,56.08 0.89,2.92 1.75,5.84 2.55,8.8 6.35,23.28 9.74,47.77 9.74,73.07 0,9.02 -0.43,17.93 -1.28,26.74l0 0 -0.56 5.28c-1.16,25.19 21.99,33.51 50.68,35.21 3.4,-0.17 6.81,-0.26 10.26,-0.26 22.12,0 43.4,3.61 63.29,10.25 42.37,-26.22 92.33,-41.38 145.83,-41.38 153.27,0 277.52,124.25 277.52,277.51 0,153.27 -124.26,277.52 -277.52,277.52 -97.28,0 -182.86,-50.07 -232.41,-125.84 -73.59,-8.56 -134.98,-57.13 -161.83,-123.38l-0.02 0.01 -0.17 -0.47c-0.71,-1.75 -1.39,-3.51 -2.05,-5.27 -27.11,-64.01 -114,-52.8 -144.94,-5.61 -1.83,3.58 -3.74,7.12 -5.72,10.62l-0.07 0.15 0 -0.02c-47.71,83.99 -137.97,140.67 -241.46,140.67 -84.03,0 -159.35,-37.36 -210.24,-96.37 -52.89,19.89 -110.17,30.81 -170.01,30.81 -139.41,0 -265.02,-59.09 -353.18,-153.57l0 0.02 -0.15 -0.18c-4.41,-4.73 -8.75,-9.56 -12.97,-14.47 -31.6,-31.32 -53.56,-22.29 -68.43,18.98 -1.49,4.97 -3.05,9.93 -4.65,14.85l-0.14 0.47 -0.01 -0.03c-63.35,193.15 -216.96,345.4 -410.96,406.85 -200.75,329.98 -500.1,593.34 -857.19,749.12 -235.85,209.26 -524.61,360.2 -843.7,430.15l0.02 0.03 -1.2 0.23c-100.12,21.88 -203.22,35.8 -308.6,41.04 -525.88,37.27 -1153.7,-72.55 -1674.04,-371.29 -73.22,-40.62 -143.42,-85.97 -210.24,-135.65 -1.62,-1.18 -3.27,-2.31 -4.87,-3.49l0.18 -0.03c-458.6,-343.2 -755.49,-890.63 -755.49,-1507.5 0,-164.23 21.09,-323.54 60.63,-475.39 -2.9,-40.9 -4.45,-82.18 -4.45,-123.83 0,-946.57 759.32,-1715.67 1702.05,-1731.75l-0.17 -0.12c436.41,-8.03 864.82,63.84 1101.51,-119.94zm4447.41 3097.67c43.29,0 78.38,35.09 78.38,78.38 0,43.29 -35.09,78.39 -78.38,78.39 -43.29,0 -78.39,-35.1 -78.39,-78.39 0,-43.29 35.1,-78.38 78.39,-78.38zm163.33 -342.81c60,0 108.64,48.64 108.64,108.64 0,60 -48.64,108.64 -108.64,108.64 -60,0 -108.64,-48.64 -108.64,-108.64 0,-60 48.64,-108.64 108.64,-108.64zm524.27 375.07c74.47,0 134.84,60.38 134.84,134.84 0,74.47 -60.38,134.85 -134.84,134.85 -74.48,0 -134.85,-60.39 -134.85,-134.85 0,-74.47 60.38,-134.84 134.85,-134.84zm404.33 -958.04c87.21,0 157.92,70.71 157.92,157.92 0,87.21 -70.71,157.93 -157.92,157.93 -87.22,0 -157.93,-70.72 -157.93,-157.93 0,-87.21 70.71,-157.92 157.93,-157.92zm1356.29 -899.04c26.22,0 51.27,5.08 74.21,14.3l0 -0.01 126.15 42.9 0.23 0.08c69.46,23.62 119.45,89.4 119.45,166.86 0,97.3 -78.89,176.19 -176.19,176.19 -1.9,0 -3.78,-0.03 -5.67,-0.09l-135.04 -2.1 -3.14 0.03c-3.05,0 -6.07,-0.09 -9.09,-0.22l-0.33 0 0.01 -0.01c-105.57,-4.92 -189.67,-92.07 -189.67,-198.85 0,-109.95 89.14,-199.08 199.08,-199.08zm-871.94 23.52c7.98,-6.46 16.45,-12.32 25.37,-17.51l0.11 -0.08 0 0.02c29.35,-17.05 63.44,-26.81 99.82,-26.81 109.95,0 199.08,89.14 199.08,199.07 0,78.14 -45.03,145.75 -110.54,178.34l0.01 0.01 -181.18 112.63 0 -0.01c-34.16,30.36 -79.14,48.82 -128.44,48.82 -106.82,0 -193.43,-86.61 -193.43,-193.43 0,-64.32 31.41,-121.29 79.71,-156.46l-0.02 -0.01 0.42 -0.29c2.35,-1.7 4.72,-3.33 7.13,-4.92l201.95 -139.37zm-2846.62 -1791.73c158.3,0 286.62,128.33 286.62,286.63 0,158.3 -128.32,286.63 -286.62,286.63 -158.31,0 -286.63,-128.33 -286.63,-286.63 0,-158.3 128.32,-286.63 286.63,-286.63z"/>
    <path class="fil1" d="M6190.14 39.82c-157.16,14.7 -243.01,99.14 -243.01,245.85 0,122.75 67.51,218.02 181.19,258 -3.64,0.16 -7.32,0.25 -11,0.25 -142.1,0 -257.29,-115.19 -257.29,-257.29 0,-142.09 115.19,-257.28 257.29,-257.28 25.29,0 49.74,3.67 72.83,10.48z"/>
    <path class="fil2" d="M1816.48 1684.29c222.93,-470.4 659.79,-747.85 1220.54,-870.15 410.95,-89.61 918.07,-259.57 1631.99,-730.21 153.96,-101.51 428.95,-58.95 303.48,114.02 -61.36,84.6 -28.21,88.33 101.75,73.68 173.55,-19.57 278.95,-7.59 336.81,28.06 46.33,28.55 29.34,59.33 -15.79,80.7 -53.32,25.26 -83.8,44.42 -96.48,64.91 -70.21,113.44 -380.94,112.84 -608.89,156.45 -104.27,19.95 -184.44,61.87 -234.92,123.56 -57.21,69.91 -104.15,110.85 -157.14,140.99 -68.34,38.89 -93.64,92.04 -79.33,160.18 31.72,151.02 -105.19,137.49 -225.02,131.91 -228.18,-10.61 -430.23,-36.14 -607.89,44.09 -243.08,109.77 -556.57,231.33 -872.86,275.17 -78.01,10.81 -134.48,42.96 -183.59,70.62 -201.69,113.58 -321.35,200.37 -393.44,300.62 -84.61,117.66 -229.73,68.58 -119.22,-164.59zm4847.23 -1577.53c63.51,0 115,51.49 115,115 0,63.51 -51.49,115 -115,115 -63.51,0 -115,-51.49 -115,-115 0,-63.51 51.49,-115 115,-115zm434.79 191.74c56.88,0 103.01,46.13 103.01,103.02 0,56.89 -46.13,103.01 -103.01,103.01 -56.89,0 -103.02,-46.12 -103.02,-103.01 0,-56.89 46.13,-103.02 103.02,-103.02zm-795.36 -62.9c67.49,0 122.21,54.71 122.21,122.21 0,67.49 -54.72,122.2 -122.21,122.2 -67.49,0 -122.21,-54.71 -122.21,-122.2 0,-67.5 54.72,-122.21 122.21,-122.21zm-402.94 80.9c-8.42,3.42 -17.63,5.3 -27.28,5.3 -40.15,0 -72.71,-32.56 -72.71,-72.72 0,-38.97 30.67,-70.77 69.17,-72.62l0 -0.01c47.5,-4.11 139.78,-5.83 151.1,39.33 10.46,41.77 -66.41,86.67 -120.28,100.72l0 -0.01zm-1101.23 593.98c87.39,-68.58 144.42,-152.99 253.72,-73.07 103.9,75.97 72.78,221.88 5.32,276.32 -120.77,97.46 -471.02,-36.92 -259.05,-203.26zm590.5 65.33c38.32,0 69.37,31.06 69.37,69.37 0,38.32 -31.06,69.37 -69.37,69.37 -38.32,0 -69.37,-31.06 -69.37,-69.37 0,-38.32 31.06,-69.37 69.37,-69.37zm-1115.83 176.07c28.24,0 51.13,22.89 51.13,51.13 0,28.23 -22.89,51.12 -51.13,51.12 -28.23,0 -51.12,-22.89 -51.12,-51.12 0,-28.24 22.89,-51.13 51.12,-51.13z"/>
    <path class="fil2" d="M387.59 2119.7c-39.27,188.89 -213.01,191.56 -286.5,13.7 -152.36,-368.78 -140.71,-667.16 91.44,-871.91 40.99,-68.5 73.87,-135.85 165.69,-224.47 150.08,-144.85 238.53,-153.96 269.95,-45.4 16.29,56.29 58.97,91.48 124.88,99.64 244.05,30.23 278.17,126.07 124.89,284.33 -59.23,61.15 -67.42,102.02 -23.62,121.82 111.97,50.62 34.22,180.54 -88.92,189.95 -64.69,4.94 -77.76,43.32 -68.7,101.03 31.65,201.59 -87.67,279.22 -271.15,299.27l0.01 0c-19.63,1.91 -34.49,15.02 -37.84,31.26l-0.15 0.77zm893.89 -1868.31c34,0 61.56,27.57 61.56,61.57 0,33.99 -27.56,61.56 -61.56,61.56 -34,0 -61.57,-27.57 -61.57,-61.56 0,-34 27.57,-61.57 61.57,-61.57zm1043.24 162.01c26.2,0 47.44,21.24 47.44,47.44 0,26.2 -21.24,47.44 -47.44,47.44 -26.2,0 -47.44,-21.24 -47.44,-47.44 0,-26.2 21.24,-47.44 47.44,-47.44zm-403 -135.72c72.51,0 131.29,58.78 131.29,131.3 0,72.51 -58.78,131.29 -131.29,131.29 -72.52,0 -131.3,-58.78 -131.3,-131.29 0,-72.52 58.78,-131.3 131.3,-131.3zm-797.19 360.74c126.99,-342.92 323.36,-119.19 289.05,110.11 -27.03,180.66 -120.38,251.82 -227.88,192.71 -88.95,-48.91 -111.81,-166.09 -61.17,-302.82z"/>
    <path class="fil3" d="M1327.4 1562.95c41.38,0 74.93,33.55 74.93,74.94 0,41.38 -33.55,74.93 -74.93,74.93 -41.39,0 -74.94,-33.55 -74.94,-74.93 0,-41.39 33.55,-74.94 74.94,-74.94z"/>
    <path class="fil4" d="M978.59 2325.16c-362.19,-128.9 -529.39,175.4 -515.86,578.56 0.97,28.83 21.56,34.14 22.31,6.84 2.79,-102.02 24.15,-189.52 70.73,-257.82 1.47,191.05 136.84,365.45 298.8,466.99 -48.95,-4.86 -137.03,-53.95 -172.78,-91.15 -12.98,-13.51 -25.01,1.41 -12.07,19.11 93.83,128.19 230.04,178.21 434.56,96.56 -190.3,224.6 -407.63,199.23 -636.75,30.18 -22.53,-16.62 -32.13,4.96 -13.07,22.13 291.48,262.44 591.11,233.62 777.9,-130.68 157.38,-306.93 104.09,-612.92 -191.76,-823.89 -416.99,-297.35 -710.69,-9.28 -712.95,449.8 -0.18,35.85 25.63,34.34 29.06,3.07 42.13,-384.19 210.99,-611.62 621.88,-369.69z"/>
    <path class="fil4" d="M2180.56 1977.97c315.78,-463.01 639.52,-421.53 812.77,-109.78 149.45,268.91 182.12,711.92 -104,960.76 -329.93,286.95 -801.43,14.43 -827.67,-363.71 -2.85,-41.07 18.85,-37.95 25.57,-8.12 82.4,365.82 429.01,536.75 773.61,265.17 -157.25,80.51 -293.08,62.86 -402.86,-57.9 -19.87,-21.85 0.69,-24.95 20.09,-10.32 56.55,42.63 129.67,56.51 213.16,50.12 -176.98,-99.89 -283.22,-270.51 -285.34,-545.28 -71.5,120.2 -78.02,245.24 -76.35,370.83 0.29,22.08 -14.94,14.87 -20.16,-3.51 -46.77,-164.77 -30.97,-340.76 90.69,-517.92 113.8,-165.7 282.46,-226.5 504.36,-158.85 -205.83,-234.63 -440.48,-157.47 -695.67,146.09 -26.57,31.63 -55.53,22.48 -28.2,-17.6z"/>
    <path class="fil1" d="M7550.15 913.74c51.87,21.51 92.2,59.06 117.65,104.53 -20.35,-22.86 -46.06,-41.59 -76.21,-54.09 -106.97,-44.36 -229.65,6.41 -274,113.38 -44.36,106.98 6.41,229.65 113.38,274 30.16,12.51 61.58,17.46 92.13,15.71 -50.15,14.12 -105.23,12.12 -157.09,-9.39 -122.65,-50.85 -180.85,-191.49 -130,-314.14 50.85,-122.65 191.49,-180.85 314.14,-130z"/>
    <path class="fil1" d="M6937.98 1639.8c34.36,14.25 61.08,39.14 77.95,69.25 -13.49,-15.14 -30.52,-27.55 -50.5,-35.84 -70.88,-29.38 -152.16,4.25 -181.54,75.12 -29.39,70.88 4.24,152.16 75.12,181.55 19.98,8.28 40.79,11.56 61.03,10.41 -33.22,9.36 -69.72,8.03 -104.08,-6.22 -81.26,-33.69 -119.82,-126.87 -86.13,-208.14 33.69,-81.26 126.88,-119.82 208.14,-86.13z"/>
    <path class="fil1" d="M6923.83 1438.06c39.72,-27.21 86.51,-36.27 130.56,-29.01 -25.66,4.9 -50.75,15.03 -73.68,30.74 -66.66,45.67 -96.12,125.33 -81.1,199.84l-38.52 18.93c-34.34,-77.49 -9.73,-170.86 62.73,-220.5z"/>
    <path class="fil1" d="M5744.9 682.99c180.41,0 339.71,90.19 435.35,227.95l-26.54 10.99c-111.06,-106.36 -261.7,-171.73 -427.62,-171.73 -161.03,0 -307.67,61.56 -417.7,162.42 95.52,-138.7 255.38,-229.64 436.52,-229.64z"/>
    <path class="fil1" d="M5540.76 1955.23c50.56,0 97.31,16.26 135.36,43.8 -15.63,-3.34 -31.83,-5.1 -48.44,-5.1 -127.61,0 -231.06,103.44 -231.06,231.06 0,77.04 37.72,145.27 95.7,187.25 -104.35,-22.26 -182.61,-114.96 -182.61,-225.94 0,-127.61 103.44,-231.06 231.06,-231.06z"/>
    <path class="fil1" d="M5592.49 1720.59c58.61,0 111.33,25.13 148.01,65.21 -25.52,-11.27 -53.73,-17.55 -83.43,-17.55 -114.21,0 -206.79,92.57 -206.79,206.78 0,14.92 1.59,29.46 4.58,43.48l-25.57 19.41c-23.56,-32.87 -37.43,-73.17 -37.43,-116.7 0,-110.81 89.82,-200.64 200.63,-200.64z"/>
    <path class="fil1" d="M5145 1740.69c45.73,-2.18 88.03,14.38 119.43,42.9 -13.56,-2.39 -27.6,-3.33 -41.93,-2.65 -104.13,4.95 -184.52,93.38 -179.57,197.51 1.07,22.48 6.03,43.83 14.2,63.47 -40.26,-28.48 -67.46,-74.54 -69.98,-127.61 -4.35,-91.54 66.31,-169.27 157.85,-173.63z"/>
    <path class="fil1" d="M6476.66 2167.27c86.28,0 165.16,31.71 225.61,84.08 -46.06,-18.94 -96.49,-29.42 -149.39,-29.42 -217.04,0 -392.98,175.94 -392.98,392.99 0,12.53 0.61,24.93 1.76,37.17 -19.08,-42.82 -29.69,-90.23 -29.69,-140.12 0,-190.37 154.31,-344.7 344.69,-344.7z"/>
    <path class="fil1" d="M6257.19 861.55c75.04,0 143.82,26.83 197.27,71.42 -41.31,-15.89 -86.19,-24.62 -133.09,-24.62 -186.84,0 -341.41,138.1 -367.26,317.79 -3.38,-18.27 -5.16,-37.11 -5.16,-56.36 0,-170.23 138.01,-308.24 308.24,-308.24z"/>
    <path class="fil1" d="M4508.46 2509.7c65.24,0 127.99,10.55 186.72,29.98 -381.51,15.59 -686.02,329.75 -686.02,715.09 0,12.45 0.33,24.83 0.96,37.12l-60.43 14.24c-22.88,-63.15 -35.36,-131.26 -35.36,-202.3 0,-328.13 266,-594.13 594.13,-594.13z"/>
    <path class="fil1" d="M4057.17 3251.31c75.42,0 144.7,26.24 199.26,70.07 -37.31,-15.34 -78.16,-23.82 -120.99,-23.82 -175.85,0 -318.41,142.56 -318.41,318.41 0,100.43 46.5,189.98 119.15,248.34 -115.85,-47.63 -197.42,-161.57 -197.42,-294.6 0,-175.85 142.56,-318.41 318.41,-318.41z"/>
    <path class="fil1" d="M8265.42 1540.35c68.06,0 129.2,29.58 171.31,76.57 -33.16,-18.1 -71.2,-28.4 -111.63,-28.4 -128.9,0 -233.39,104.49 -233.39,233.39 0,52.63 17.43,101.19 46.8,140.22 -62.11,-41.17 -103.08,-111.7 -103.08,-191.81 0,-127.01 102.97,-229.98 229.99,-229.98z"/>
    <path class="fil1" d="M8481.72 2694.88c15.87,0 31.07,2.85 45.13,8.05l-0.86 -0.01c-87.08,0 -157.68,70.59 -157.68,157.68 0,11.68 1.29,23.07 3.69,34.04 -12.83,-20.15 -20.28,-44.09 -20.28,-69.75 0,-71.8 58.21,-130.01 130,-130.01z"/>
    <path class="fil1" d="M7557.6 3268.01c11.52,0 22.58,2.07 32.79,5.85l-0.63 -0.01c-63.29,0 -114.6,51.31 -114.6,114.59 0,8.5 0.94,16.78 2.7,24.75 -9.34,-14.64 -14.75,-32.04 -14.75,-50.7 0,-52.18 42.3,-94.48 94.49,-94.48z"/>
    <path class="fil1" d="M7388.36 3611.03c7.17,0 14.04,1.29 20.39,3.64l-0.39 -0.01c-39.35,0 -71.26,31.91 -71.26,71.27 0,5.28 0.58,10.43 1.67,15.39 -5.8,-9.12 -9.17,-19.93 -9.17,-31.54 0,-32.44 26.3,-58.76 58.76,-58.76z"/>
    <path class="fil1" d="M8077.57 3650.1c13.63,0 26.69,2.45 38.78,6.91l-0.74 -0.01c-74.84,0 -135.5,60.66 -135.5,135.5 0,10.06 1.11,19.83 3.18,29.26 -11.03,-17.32 -17.44,-37.89 -17.44,-59.95 0,-61.69 50.02,-111.71 111.72,-111.71z"/>
    <path class="fil1" d="M9843.29 1808c48.16,0 91.42,20.93 121.22,54.17 -23.47,-12.8 -50.38,-20.08 -79,-20.08 -91.2,0 -165.14,73.93 -165.14,165.14 0,37.24 12.33,71.59 33.12,99.21 -43.95,-29.13 -72.94,-79.04 -72.94,-135.71 0,-89.87 72.86,-162.73 162.73,-162.73z"/>
    <path class="fil5" d="M5286.12 3598.48c-14.85,0 -26.27,5.33 -34.27,16.15 -8.01,10.73 -12.04,25.58 -12.04,44.53 0,19.63 3.62,34.75 10.87,45.29 7.19,10.54 19.02,15.81 35.44,15.81 7.39,0 15.26,-1.03 23.67,-3.02 8.42,-1.98 15.67,-4.37 21.82,-7.18l0 31.68c-15.32,6.77 -31.06,10.2 -47.06,10.2 -26.33,0 -46.72,-8.08 -61.22,-24.16 -14.5,-16.08 -21.75,-38.93 -21.75,-68.61 0,-28.59 7.32,-51.1 22.03,-67.59 14.7,-16.49 35.16,-24.77 61.35,-24.77 18.4,0 36.74,4.65 54.87,14.02l-13 28.67c-14.16,-7.32 -27.7,-11.01 -40.7,-11.01zm-158.92 60.74c0,-26.68 6.71,-51.72 20.04,-75.11 13.34,-23.4 31.75,-41.86 55.14,-55.34 23.33,-13.47 48.57,-20.25 75.52,-20.25 26.74,0 51.79,6.71 75.18,20.05 23.33,13.33 41.79,31.74 55.27,55.13 13.47,23.4 20.25,48.57 20.25,75.52 0,26.34 -6.5,51.1 -19.43,74.23 -13,23.12 -31.13,41.59 -54.52,55.48 -23.4,13.88 -48.98,20.86 -76.75,20.86 -27.64,0 -53.16,-6.91 -76.55,-20.73 -23.4,-13.81 -41.59,-32.35 -54.59,-55.41 -13.06,-23.12 -19.56,-47.95 -19.56,-74.43zm24.63 0c0,22.78 5.68,43.85 16.97,63.28 11.29,19.42 26.68,34.75 46.18,45.97 19.5,11.22 40.5,16.9 62.94,16.9 22.71,0 43.85,-5.74 63.34,-17.17 19.5,-11.42 34.82,-26.81 45.98,-46.11 11.15,-19.29 16.76,-40.22 16.76,-62.87 0,-22.44 -5.67,-43.44 -16.97,-63 -11.28,-19.56 -26.67,-34.96 -46.31,-46.18 -19.57,-11.29 -40.5,-16.9 -62.8,-16.9 -22.44,0 -43.31,5.53 -62.59,16.69 -19.36,11.08 -34.75,26.34 -46.25,45.91 -11.49,19.49 -17.25,40.63 -17.25,63.48z"/>
    <path class="fil1" d="M6766.88 3143.14c51.52,0 98.61,18.92 134.71,50.21 -27.5,-11.31 -57.62,-17.57 -89.2,-17.57 -129.59,0 -234.63,105.04 -234.63,234.63 0,7.49 0.36,14.89 1.05,22.2 -11.39,-25.56 -17.73,-53.87 -17.73,-83.66 0,-113.67 92.14,-205.81 205.8,-205.81z"/>
   </g>
   <g>
    <polygon class="fil1" points="1306.15,5406.37 1741.44,5406.37 2757.12,5406.37 2612.03,5841.66 1741.44,5841.66 1741.44,6712.25 2612.03,6712.25 2612.03,7147.54 1741.44,7147.54 1306.15,7147.54 1306.15,6712.25 1306.15,5841.66 "/>
    <polygon class="fil1" points="3627.7,5841.66 2757.12,5841.66 2902.22,5406.37 3627.7,5406.37 4062.99,5406.37 4062.99,5841.66 4062.99,6059.31 4062.99,6494.6 3627.7,6494.6 3540.65,6494.6 4062.99,7147.54 3627.7,7147.54 3192.41,6603.42 3192.41,7147.54 2757.12,7147.54 2757.12,6494.6 2757.12,6059.31 3192.41,6059.31 3627.7,6059.31 "/>
    <path class="fil1" d="M4208.1 6712.25l1305.87 0 0 435.29 -1305.87 0 0 -435.29zm0 -652.93l1305.87 0 0 435.29 -1305.87 0 0 -435.29zm0 -652.94l1305.87 0 0 435.29 -1305.87 0 0 -435.29z"/>
    <polygon class="fil1" points="6094.37,5841.66 6094.37,6712.25 6529.66,6712.25 6529.66,5841.66 6964.95,5406.37 6964.95,6712.25 6964.95,7147.54 6529.66,7147.54 6094.37,7147.54 5659.08,7147.54 5659.08,6712.25 5659.08,5406.37 "/>
    <polygon class="fil1" points="7545.33,5406.37 7980.62,6276.96 8415.92,7147.54 8851.21,7147.54 8415.92,6276.96 8851.21,5406.37 8415.92,5406.37 7980.62,6276.96 7545.33,7147.54 7110.04,7147.54 7545.33,6276.96 7110.04,5406.37 "/>
   </g>
  </g>
 </g>
</svg>
