<?xml version="1.0" encoding="UTF-8"?>
<!DOCTYPE svg PUBLIC "-//W3C//DTD SVG 1.1//EN" "http://www.w3.org/Graphics/SVG/1.1/DTD/svg11.dtd">
<!-- Creator: CorelDRAW 2021 (64-Bit) -->
<svg xmlns="http://www.w3.org/2000/svg" xml:space="preserve" width="62.983mm" height="44.2258mm" version="1.1" style="shape-rendering:geometricPrecision; text-rendering:geometricPrecision; image-rendering:optimizeQuality; fill-rule:evenodd; clip-rule:evenodd"
viewBox="0 0 4310.02 3026.44"
 xmlns:xlink="http://www.w3.org/1999/xlink"
 xmlns:xodm="http://www.corel.com/coreldraw/odm/2003">
 <defs>
  <style type="text/css">
   <![CDATA[
    .fil0 {fill:white}
    .fil1 {fill:white;fill-rule:nonzero}
   ]]>
  </style>
 </defs>
 <g id="Layer_x0020_1">
  <metadata id="CorelCorpID_0Corel-Layer"/>
  <g id="_2078840544272">
   <path class="fil0" d="M1260.09 214.69c34.26,-25.37 76.66,-40.37 122.57,-40.37 30.11,0 58.71,6.46 84.49,18.06l-0.01 0 0.03 0.01c2.16,0.97 4.29,1.98 6.41,3.02 17.13,7.25 37.02,9.24 56.89,1.55 2.8,-1.38 5.64,-2.68 8.53,-3.91l0.03 -0.01 0 0c19.24,-8.14 40.4,-12.64 62.6,-12.64 35.14,0 67.64,11.27 94.11,30.39 -156.51,76.31 -284.18,114.42 -395.23,138.64 -237.01,51.69 -421.68,168.96 -515.9,367.79 -46.71,98.56 14.62,119.3 50.39,69.57 30.47,-42.37 81.05,-79.05 166.3,-127.06 20.76,-11.69 44.63,-25.28 77.6,-29.85 133.69,-18.53 266.2,-69.92 368.94,-116.31 75.1,-33.91 160.49,-23.12 256.94,-18.64 50.65,2.36 108.52,8.08 95.12,-55.75 -6.05,-28.8 4.64,-51.27 33.53,-67.71 22.39,-12.74 42.24,-30.04 66.41,-59.59 21.34,-26.08 55.22,-43.8 99.3,-52.23 96.35,-18.44 227.69,-18.18 257.36,-66.13 5.36,-8.66 18.24,-16.76 40.78,-27.43 19.07,-9.03 26.26,-22.04 6.67,-34.11 -24.45,-15.07 -69.01,-20.13 -142.36,-11.87 -41.68,4.7 -59.8,4.92 -54.78,-10.87 30.71,-18.48 66.67,-29.12 105.12,-29.12 88.55,0 163.93,56.39 192.21,135.21l0.01 -0.01 0.05 0.18c0.66,1.82 1.27,3.65 1.87,5.49 6.65,16.99 19.23,26.24 44.02,29.66 3.53,0.3 7.04,0.66 10.54,1.05l0.11 0.01 -0.01 0c76.1,8.77 145,41.11 199.26,89.54 49.56,3.33 94.21,24.58 127.56,57.3 34.83,-28.67 79.44,-45.88 128.08,-45.88 58.71,0 111.57,25.1 148.44,65.15 25.42,-31.71 64.48,-52.01 108.29,-52.01 43.17,0 81.74,19.72 107.18,50.65 9.69,-31.9 39.32,-55.11 74.39,-55.11 42.92,0 77.72,34.8 77.72,77.72 0,24.83 -11.65,46.95 -29.78,61.18 16.98,19.48 27.28,44.95 27.28,72.83 0,11.24 -1.68,22.08 -4.78,32.3l0 0.01c-0.5,1.64 -1.04,3.26 -1.61,4.87 -4.45,20.02 18.5,36.67 42.18,29.99 14.82,-6.36 31.15,-9.87 48.31,-9.87 67.8,0 122.78,54.98 122.78,122.79 0,39.75 -18.9,75.08 -48.19,97.51 -5.62,55.98 -52.87,99.68 -110.32,99.68 -46.35,0 -86.05,-28.45 -102.61,-68.83 -2.51,0.15 -5.04,0.23 -7.59,0.23 -70.24,0 -127.18,-56.94 -127.18,-127.17 0,-11.71 1.58,-23.05 4.55,-33.81l-0.01 0 0.01 -0.02c1.01,-3.67 2.18,-7.28 3.51,-10.81 8.9,-32.69 -2.75,-50.41 -16.95,-49.35 -1.22,0.27 -2.47,0.5 -3.72,0.7 -3.48,0.55 -7.05,0.83 -10.68,0.83 -18.23,0 -34.78,-7.18 -46.98,-18.86 -3.18,-0.05 -6.32,-0.22 -9.44,-0.49l0 0 -0.01 0c-3.54,-0.3 -7.03,-0.74 -10.49,-1.3 -15.68,-0.73 -22.27,5.76 -21.82,19.61 0.43,2.81 0.75,5.65 0.97,8.52l0 0.01c0.22,2.87 0.33,5.78 0.33,8.72 0,53.7 -37.19,98.71 -87.22,110.71 -18.52,37.79 -57.37,63.83 -102.29,63.83 -41.44,0 -77.71,-22.15 -97.62,-55.25 -6.17,1.04 -12.51,1.59 -18.98,1.59 -7.27,0 -14.38,-0.68 -21.27,-1.98l-0.01 0 -0.01 -0.01c-0.81,-0.15 -1.62,-0.31 -2.43,-0.49 -10.74,-1.58 -15.93,5.67 -12.73,16.67l0.62 1.9 0.01 0.03 -0.01 0c5.39,16.73 8.29,34.58 8.29,53.1 0,6.64 -0.38,13.21 -1.1,19.65 -0.77,10.28 3.54,15.68 11.75,17.91l1.02 0.25 0.12 0.03 0 0.01c72.73,18.75 126.48,84.78 126.48,163.36 0,88.51 -68.19,161.09 -154.88,168.14l0.01 0.01 -0.12 0.01c-1.81,0.14 -3.63,0.27 -5.45,0.36 -16.37,1.92 -22.37,11.3 -19.54,23.7 0.38,1.22 0.74,2.47 1.08,3.72 2.68,9.84 4.11,20.19 4.11,30.88 0,3.81 -0.18,7.58 -0.54,11.3l0 0 -0.24 2.24c-0.49,10.64 9.3,14.17 21.42,14.88 1.44,-0.08 2.89,-0.11 4.34,-0.11 9.35,0 18.35,1.53 26.75,4.33 17.92,-11.09 39.03,-17.49 61.64,-17.49 64.78,0 117.3,52.52 117.3,117.3 0,64.78 -52.52,117.3 -117.3,117.3 -41.12,0 -77.29,-21.16 -98.24,-53.19 -31.1,-3.61 -57.05,-24.14 -68.4,-52.14l-0.01 0.01 -0.08 -0.2c-0.3,-0.74 -0.58,-1.48 -0.86,-2.23 -11.46,-27.06 -48.18,-22.32 -61.26,-2.37 -0.77,1.52 -1.58,3.01 -2.42,4.49l-0.03 0.06 0 -0.01c-20.17,35.5 -58.32,59.46 -102.06,59.46 -35.52,0 -67.35,-15.79 -88.87,-40.74 -22.35,8.41 -46.57,13.02 -71.86,13.02 -58.93,0 -112.02,-24.98 -149.28,-64.91l0 0.01 -0.06 -0.08c-1.87,-2 -3.7,-4.04 -5.49,-6.12 -13.35,-13.23 -22.64,-9.42 -28.93,8.03 -0.63,2.1 -1.29,4.19 -1.96,6.28l-0.06 0.2 -0.01 -0.01c-26.77,81.65 -91.7,146 -173.71,171.97 -84.85,139.48 -211.38,250.79 -362.31,316.64 -99.69,88.45 -221.75,152.25 -356.62,181.82l0.01 0.01 -0.51 0.1c-42.32,9.25 -85.89,15.13 -130.44,17.35 -222.28,15.75 -487.64,-30.66 -707.58,-156.93 -30.95,-17.17 -60.62,-36.34 -88.87,-57.34 -0.68,-0.5 -1.38,-0.98 -2.06,-1.47l0.08 -0.01c-193.84,-145.06 -319.33,-376.46 -319.33,-637.19 0,-69.42 8.92,-136.75 25.62,-200.94 -1.22,-17.29 -1.88,-34.74 -1.88,-52.34 0,-20.14 0.86,-40.07 2.45,-59.8 35.35,42.17 89.14,30.54 103.04,-36.34l0.07 -0.32c1.41,-6.86 7.69,-12.41 15.99,-13.21l-0.01 0c77.55,-8.48 127.99,-41.28 114.61,-126.5 -3.83,-24.39 1.7,-40.61 29.04,-42.7 52.04,-3.98 84.91,-58.9 37.58,-80.29 -18.52,-8.37 -15.05,-25.64 9.98,-51.49 64.79,-66.9 50.37,-107.41 -52.79,-120.18 -9.23,-1.14 -17.39,-3.54 -24.42,-7.11 50.76,-46.87 108.16,-86.64 170.64,-117.75 2.33,27.56 14.75,49.39 36.65,61.44 45.44,24.98 84.9,-5.1 96.32,-81.46 1.57,-10.47 2,-20.92 1.44,-31.05 57.14,-15.44 117.05,-24.16 178.83,-25.21l-0.07 -0.05c184.46,-3.39 365.54,26.98 465.58,-50.69zm-829.64 773.42c-153.09,-54.49 -223.76,74.14 -218.04,244.55 0.41,12.18 9.12,14.43 9.42,2.89 1.18,-43.12 10.21,-80.11 29.9,-108.98 0.62,80.76 57.84,154.47 126.3,197.39 -20.69,-2.05 -57.91,-22.81 -73.03,-38.53 -5.49,-5.71 -10.57,0.6 -5.1,8.08 39.66,54.18 97.23,75.33 183.68,40.82 -80.43,94.93 -172.3,84.21 -269.14,12.76 -9.52,-7.03 -13.58,2.09 -5.52,9.35 123.2,110.93 249.85,98.74 328.8,-55.24 66.52,-129.73 44,-259.07 -81.05,-348.24 -176.25,-125.69 -300.39,-3.92 -301.35,190.12 -0.08,15.15 10.84,14.51 12.28,1.29 17.81,-162.38 89.19,-258.52 262.85,-156.26zm508.06 -146.75c133.47,-195.71 270.32,-178.18 343.54,-46.4 63.17,113.66 76.99,300.91 -43.96,406.1 -139.46,121.28 -338.75,6.1 -349.84,-153.74 -1.2,-17.35 7.97,-16.03 10.81,-3.43 34.83,154.62 181.34,226.87 326.99,112.08 -66.46,34.02 -123.87,26.57 -170.28,-24.48 -8.4,-9.23 0.29,-10.54 8.49,-4.36 23.9,18.02 54.81,23.89 90.1,21.19 -74.81,-42.22 -119.71,-114.34 -120.61,-230.48 -30.22,50.8 -32.98,103.65 -32.27,156.74 0.12,9.33 -6.32,6.29 -8.52,-1.48 -19.77,-69.64 -13.09,-144.04 38.34,-218.92 48.1,-70.04 119.39,-95.74 213.18,-67.14 -87,-99.18 -186.18,-66.56 -294.04,61.75 -11.24,13.36 -23.47,9.5 -11.92,-7.44zm1106.75 -451.21c36.94,-28.99 61.05,-64.66 107.25,-30.88 43.91,32.11 30.75,93.79 2.24,116.79 -51.05,41.2 -199.09,-15.6 -109.5,-85.91zm249.6 27.61c16.2,0 29.32,13.13 29.32,29.32 0,16.2 -13.13,29.32 -29.32,29.32 -16.19,0 -29.32,-13.13 -29.32,-29.32 0,-16.2 13.13,-29.32 29.32,-29.32zm-471.64 74.43c11.93,0 21.61,9.67 21.61,21.6 0,11.94 -9.68,21.61 -21.61,21.61 -11.93,0 -21.6,-9.67 -21.6,-21.61 0,-11.93 9.67,-21.6 21.6,-21.6zm810.06 -470.04c-48.18,4.5 -80.49,24.52 -94.62,58.83 11.4,2.24 20.73,6.82 22.91,15.54 3.21,12.82 -13.04,26.33 -30.89,35.05 1.95,49.22 30.14,87.25 76.47,103.54 -1.55,0.06 -3.09,0.1 -4.65,0.1 -55.13,0 -100.68,-41.03 -107.78,-94.22 -4.56,-0.66 -8.81,-2.33 -12.49,-4.78 4.97,62.35 57.13,111.39 120.76,111.39 36.18,0 68.65,-15.86 90.85,-41.01 -4.09,1.05 -8.38,1.6 -12.8,1.6 -28.53,0 -51.65,-23.13 -51.65,-51.66 0,-28.52 23.12,-51.65 51.65,-51.65 17.99,0 33.83,9.2 43.08,23.15l0.02 -1.58c0,-66.91 -54.25,-121.15 -121.15,-121.15 -50.86,0 -94.39,31.34 -112.36,75.76 2.27,-0.65 4.63,-1.05 7.08,-1.18l0 0c2.06,-0.18 4.32,-0.35 6.72,-0.49 17.55,-36.49 54.86,-61.69 98.07,-61.69 10.69,0 21.02,1.55 30.78,4.43zm243.78 1311.71c21.77,0 41.68,8 56.94,21.22 -11.62,-4.78 -24.35,-7.42 -37.7,-7.42 -54.78,0 -99.18,44.41 -99.18,99.18 0,3.17 0.15,6.3 0.44,9.38 -4.82,-10.81 -7.49,-22.77 -7.49,-35.37 0,-48.04 38.94,-86.99 86.99,-86.99zm1300.34 -564.34c20.36,0 38.64,8.85 51.23,22.9 -9.92,-5.41 -21.29,-8.49 -33.39,-8.49 -38.55,0 -69.8,31.25 -69.8,69.8 0,15.74 5.21,30.26 14,41.93 -18.58,-12.31 -30.83,-33.41 -30.83,-57.37 0,-37.99 30.79,-68.78 68.78,-68.78zm-746.33 778.62c5.76,0 11.28,1.04 16.39,2.93l-0.31 -0.01c-31.63,0 -57.27,25.64 -57.27,57.27 0,4.25 0.47,8.38 1.34,12.37 -4.66,-7.32 -7.37,-16.01 -7.37,-25.34 0,-26.08 21.15,-47.22 47.22,-47.22zm-291.31 -16.51c3.02,0 5.93,0.55 8.62,1.54l-0.16 0c-16.64,0 -30.12,13.49 -30.12,30.12 0,2.24 0.25,4.41 0.71,6.51 -2.46,-3.85 -3.88,-8.42 -3.88,-13.33 0,-13.71 11.12,-24.83 24.84,-24.83zm71.53 -144.99c4.87,0 9.55,0.87 13.86,2.47l-0.27 -0.01c-26.75,0 -48.44,21.69 -48.44,48.44 0,3.59 0.4,7.09 1.14,10.46 -3.95,-6.19 -6.23,-13.54 -6.23,-21.43 0,-22.05 17.88,-39.93 39.94,-39.93zm390.61 -242.25c6.71,0 13.13,1.2 19.07,3.41l-0.36 -0.01c-36.8,0 -66.65,29.84 -66.65,66.65 0,4.94 0.55,9.75 1.57,14.39 -5.43,-8.52 -8.58,-18.63 -8.58,-29.49 0,-30.34 24.61,-54.95 54.95,-54.95zm-91.42 -487.99c28.77,0 54.61,12.5 72.41,32.36 -14.01,-7.65 -30.09,-12 -47.18,-12 -54.49,0 -98.65,44.17 -98.65,98.65 0,22.25 7.36,42.77 19.78,59.27 -26.25,-17.4 -43.56,-47.21 -43.56,-81.07 0,-53.68 43.52,-97.21 97.21,-97.21zm-1778.75 723.19c31.88,0 61.16,11.09 84.23,29.62 -15.77,-6.49 -33.04,-10.07 -51.14,-10.07 -74.33,0 -134.59,60.25 -134.59,134.58 0,42.45 19.66,80.3 50.37,104.97 -48.96,-20.13 -83.45,-68.29 -83.45,-124.52 0,-56.69 35.05,-105.19 84.67,-125.02 -6.8,-22.78 -10.46,-46.92 -10.46,-71.91 0,-138.7 112.43,-251.13 251.13,-251.13 27.57,0 54.1,4.46 78.92,12.67 -161.25,6.59 -289.96,139.38 -289.96,302.26l0 0.07c6.62,-1.01 13.39,-1.53 20.29,-1.53zm929.9 -1010.1c31.72,0 60.79,11.34 83.39,30.19 -17.46,-6.71 -36.43,-10.41 -56.26,-10.41 -78.98,0 -144.31,58.37 -155.24,134.32 -1.42,-7.73 -2.18,-15.68 -2.18,-23.82 0,-51.34 29.71,-95.75 72.87,-116.97 -45.29,-37.7 -103.53,-60.38 -167.07,-60.38 -68.07,0 -130.05,26.02 -176.56,68.66 40.37,-58.63 107.94,-97.07 184.51,-97.07 70.11,0 132.68,32.23 173.72,82.68 13.41,-4.66 27.82,-7.2 42.81,-7.2zm92.77 551.9c36.47,0 69.81,13.4 95.36,35.54 -19.47,-8.01 -40.79,-12.43 -63.14,-12.43 -91.74,0 -166.11,74.37 -166.11,166.11 0,5.3 0.26,10.53 0.75,15.71 -8.06,-18.09 -12.55,-38.14 -12.55,-59.23 0,-80.46 65.23,-145.69 145.7,-145.69zm-562.87 -180.31c19.33,-0.92 37.21,6.08 50.48,18.13 -5.73,-1.01 -11.67,-1.41 -17.72,-1.12 -44.02,2.09 -77.99,39.47 -75.9,83.49 0.45,9.51 2.55,18.53 5.99,26.83 -17.01,-12.04 -28.51,-31.51 -29.58,-53.94 -1.84,-38.69 28.03,-71.55 66.72,-73.39zm189.14 -8.49c24.77,0 47.06,10.62 62.57,27.56 -10.79,-4.77 -22.72,-7.42 -35.27,-7.42 -48.07,0 -87.08,38.81 -87.4,86.81 11.74,-5 24.67,-7.77 38.24,-7.77 21.37,0 41.13,6.87 57.22,18.52 -6.6,-1.41 -13.45,-2.16 -20.47,-2.16 -53.94,0 -97.67,43.72 -97.67,97.66 0,32.57 15.94,61.4 40.45,79.15 -44.1,-9.41 -77.18,-48.59 -77.18,-95.5 0,-32.87 16.24,-61.95 41.13,-79.65 -4.13,-9.98 -6.41,-20.92 -6.41,-32.39 0,-46.83 37.97,-84.8 84.8,-84.8zm562.73 -119.42c16.79,-11.5 36.57,-15.33 55.18,-12.26 -10.85,2.07 -21.45,6.35 -31.14,13 -26.84,18.39 -39.42,49.81 -35.06,79.97 5.71,0.75 11.42,2.26 16.99,4.56 14.53,6.03 25.82,16.55 32.95,29.28 -5.7,-6.4 -12.9,-11.65 -21.34,-15.15 -29.96,-12.42 -64.31,1.8 -76.73,31.76 -12.43,29.96 1.79,64.31 31.75,76.73 8.44,3.5 17.24,4.89 25.8,4.39 -14.04,3.96 -29.47,3.39 -43.99,-2.62 -34.35,-14.25 -50.65,-53.63 -36.41,-87.98 9.25,-22.31 29.1,-36.99 51.29,-40.66 -7.5,-29.88 3.8,-62.58 30.71,-81.02zm264.73 -221.62c21.92,9.09 38.97,24.96 49.73,44.18 -8.6,-9.66 -19.47,-17.58 -32.22,-22.86 -45.21,-18.74 -97.06,2.71 -115.81,47.93 -18.74,45.21 2.71,97.06 47.93,115.81 12.75,5.29 26.02,7.38 38.94,6.64 -21.2,5.97 -44.48,5.12 -66.4,-3.97 -51.84,-21.49 -76.44,-80.94 -54.94,-132.78 21.49,-51.84 80.94,-76.44 132.78,-54.94zm-68.2 1132.48c18.3,0 33.13,14.84 33.13,33.13 0,18.3 -14.84,33.13 -33.13,33.13 -18.29,0 -33.13,-14.84 -33.13,-33.13 0,-18.29 14.84,-33.13 33.13,-33.13zm69.04 -144.9c25.35,0 45.92,20.56 45.92,45.92 0,25.36 -20.56,45.92 -45.92,45.92 -25.36,0 -45.92,-20.56 -45.92,-45.92 0,-25.36 20.56,-45.92 45.92,-45.92zm221.6 158.54c31.47,0 57,25.52 57,57 0,31.47 -25.52,57 -57,57 -31.48,0 -57,-25.52 -57,-57 0,-31.48 25.52,-57 57,-57zm170.9 -404.94c36.86,0 66.75,29.88 66.75,66.75 0,36.86 -29.88,66.75 -66.75,66.75 -36.86,0 -66.75,-29.88 -66.75,-66.75 0,-36.86 29.88,-66.75 66.75,-66.75zm573.28 -380.01c11.09,0 21.67,2.15 31.37,6.04l0 0 53.31 18.13 0.1 0.03c29.36,9.98 50.49,37.79 50.49,70.53 0,41.13 -33.35,74.48 -74.47,74.48 -0.8,0 -1.6,-0.01 -2.4,-0.04l-57.09 -0.89 -1.32 0.01c-1.29,0 -2.57,-0.03 -3.84,-0.09l-0.14 -0.01 0.01 0c-44.62,-2.08 -80.17,-38.92 -80.17,-84.05 0,-46.47 37.67,-84.14 84.14,-84.14zm-368.55 9.94c3.37,-2.74 6.95,-5.21 10.73,-7.4l0.04 -0.03 0 0c12.41,-7.21 26.81,-11.33 42.19,-11.33 46.47,0 84.14,37.68 84.14,84.15 0,33.03 -19.03,61.6 -46.72,75.38l0 0.01 -76.57 47.6 0 0c-14.44,12.83 -33.45,20.63 -54.29,20.63 -45.16,0 -81.76,-36.6 -81.76,-81.76 0,-27.19 13.28,-51.27 33.69,-66.13l-0.01 -0.01 0.18 -0.12c0.99,-0.71 2,-1.4 3.02,-2.07l85.35 -58.91z"/>
   <path class="fil0" d="M1816.99 474.88c2.03,-0.32 4.11,-0.49 6.22,-0.49 21.75,0 39.4,17.64 39.4,39.4 0,21.76 -17.65,39.4 -39.4,39.4 -21.75,0 -39.4,-17.64 -39.4,-39.4 0,-1.97 0.14,-3.91 0.42,-5.82 -0.77,0.28 -1.55,0.55 -2.35,0.81 -23.35,7.64 -53.54,5.05 -77.93,3.91 -44.88,-2.09 -90.35,-6.09 -135.25,-5.06 -39.07,0.9 -77.66,5.94 -113.55,22.14 -117.88,53.23 -245.17,99.88 -373.82,117.72 -27.35,3.79 -47.72,14.45 -71.31,27.73 -53.54,30.16 -124.07,71.17 -160.59,121.95 -9.51,13.22 -22.53,24.94 -38.11,30.38 -14.89,5.2 -31.12,4.01 -43.64,-6.11 -32.18,-26.01 -13.52,-81.54 0.83,-111.84 101.96,-215.14 302.02,-328.24 528.19,-377.56 101.34,-22.1 198.12,-52.69 293.77,-92.94 136.53,-57.46 266.51,-131.74 390.04,-213.18 33.63,-22.17 83.88,-32.28 122.87,-21.73 49.79,13.48 58.97,54.72 29.6,95.22 -0.89,1.22 -2.42,3.36 -4,5.71 10.87,-0.36 25.64,-2.14 30.6,-2.7 44.17,-4.98 114.02,-10.05 153.69,14.4 13.49,8.31 23.76,21.82 18.89,38.36 -3.8,12.93 -15.65,21.47 -27.28,26.98 -7.17,3.39 -28.98,13.78 -33.27,20.72 -21.45,34.64 -78.68,46.01 -115.84,52.31 -50.87,8.62 -102.67,12.24 -153.31,21.93 -32.71,6.25 -67.2,19.54 -88.87,46.01 -20.75,25.35 -42.72,47.48 -71.39,63.79 -20,11.38 -29.78,25.42 -24.92,48.59 2.99,14.25 3.17,27.73 -0.32,39.35zm-1032.38 242.34c94.22,-198.83 278.89,-316.11 515.9,-367.79 173.7,-37.88 388.05,-109.72 689.81,-308.65 65.08,-42.91 181.3,-24.92 128.27,48.2 -25.94,35.76 -11.92,37.33 43.01,31.14 73.35,-8.27 117.91,-3.2 142.36,11.87 19.59,12.06 12.4,25.07 -6.67,34.11 -22.53,10.68 -35.42,18.78 -40.78,27.43 -29.68,47.95 -161.01,47.7 -257.36,66.13 -44.08,8.43 -77.96,26.15 -99.3,52.23 -24.18,29.55 -44.02,46.86 -66.41,59.59 -28.89,16.44 -39.58,38.9 -33.53,67.71 13.4,63.83 -44.47,58.11 -95.12,55.75 -96.45,-4.48 -181.84,-15.27 -256.94,18.64 -102.74,46.39 -235.25,97.77 -368.94,116.31 -32.97,4.57 -56.85,18.16 -77.6,29.85 -85.25,48.01 -135.82,84.69 -166.3,127.06 -35.77,49.74 -97.1,28.99 -50.39,-69.57zm2048.83 -666.79c26.84,0 48.61,21.77 48.61,48.61 0,26.84 -21.77,48.61 -48.61,48.61 -26.85,0 -48.61,-21.77 -48.61,-48.61 0,-26.85 21.77,-48.61 48.61,-48.61zm183.77 81.05c24.05,0 43.54,19.49 43.54,43.54 0,24.05 -19.5,43.54 -43.54,43.54 -24.05,0 -43.54,-19.5 -43.54,-43.54 0,-24.05 19.49,-43.54 43.54,-43.54zm-336.18 -26.59c28.52,0 51.65,23.13 51.65,51.65 0,28.53 -23.13,51.66 -51.65,51.66 -28.53,0 -51.65,-23.13 -51.65,-51.66 0,-28.52 23.12,-51.65 51.65,-51.65zm-170.31 34.2c-3.56,1.44 -7.45,2.24 -11.53,2.24 -16.97,0 -30.73,-13.76 -30.73,-30.73 0,-16.47 12.96,-29.92 29.24,-30.7l0 0c20.07,-1.75 59.08,-2.46 63.86,16.62 4.42,17.66 -28.06,36.64 -50.84,42.58l0 -0.01zm-465.47 251.06c36.94,-28.99 61.05,-64.66 107.25,-30.88 43.91,32.11 30.75,93.79 2.24,116.79 -51.05,41.2 -199.09,-15.6 -109.5,-85.91zm249.6 27.61c16.2,0 29.32,13.13 29.32,29.32 0,16.2 -13.13,29.32 -29.32,29.32 -16.19,0 -29.32,-13.13 -29.32,-29.32 0,-16.2 13.13,-29.32 29.32,-29.32zm-471.64 74.43c11.93,0 21.61,9.67 21.61,21.6 0,11.94 -9.68,21.61 -21.61,21.61 -11.93,0 -21.6,-9.67 -21.6,-21.61 0,-11.93 9.67,-21.6 21.6,-21.6zm1010.23 -459.54c36.66,0 66.4,29.73 66.4,66.4 0,36.66 -29.74,66.4 -66.4,66.4 -36.67,0 -66.4,-29.74 -66.4,-66.4 0,-36.67 29.73,-66.4 66.4,-66.4zm183.77 81.04c33.87,0 61.34,27.46 61.34,61.33 0,33.87 -27.47,61.34 -61.34,61.34 -33.87,0 -61.33,-27.47 -61.33,-61.34 0,-33.87 27.46,-61.33 61.33,-61.33zm-336.18 -26.59c38.34,0 69.44,31.1 69.44,69.44 0,38.35 -31.1,69.45 -69.44,69.45 -38.35,0 -69.44,-31.1 -69.44,-69.45 0,-38.34 31.1,-69.44 69.44,-69.44zm-164.78 68.92c-5.45,2.05 -11.23,3.09 -17.07,3.09 -26.79,0 -48.52,-21.73 -48.52,-48.52 0,-25.75 20.14,-47.02 45.8,-48.44 26.74,-2.3 74.19,-2.53 82.35,30.05 8.21,32.8 -36.35,56.67 -62.56,63.83zm-481.99 220.13c17.14,-13.45 33.67,-31.01 53.1,-40.85 26.87,-13.62 51.83,-7.8 75.64,9.6 25.05,18.32 37.43,46.5 35.54,77.26 -1.53,24.96 -12.87,51.8 -32.62,67.74 -33.4,26.96 -91.69,20.3 -127.29,0.58 -18.77,-10.4 -35.7,-26.78 -38.86,-48.94 -3.87,-27.19 14.44,-49.65 34.5,-65.39zm260.58 23.81c26.02,0 47.12,21.1 47.12,47.12 0,26.02 -21.1,47.12 -47.12,47.12 -26.01,0 -47.12,-21.1 -47.12,-47.12 0,-26.02 21.1,-47.12 47.12,-47.12z"/>
   <path class="fil0" d="M84.95 527.57c8.58,-14.43 16.69,-28.93 26.17,-42.87 13.27,-19.5 28.35,-36.91 45.32,-53.29 21.4,-20.65 54.64,-49.7 85.1,-54.33 30.47,-4.63 49.12,15.01 57.11,42.65 5.47,18.89 19.52,27.62 38.56,29.98 33.96,4.21 87.93,14.17 102.96,50.1 14.99,35.83 -16.81,74.77 -40.05,98.75 -3.52,3.63 -15.64,17.03 -16.83,23.34 0.55,0.35 1.25,0.68 1.64,0.86 29,13.1 41.57,41.18 26.54,70.01 -13.19,25.31 -42.04,40.57 -69.83,42.7 -3.5,0.27 -10.78,1.11 -12.85,4.65 -2.53,4.31 -1.43,13.84 -0.7,18.48 14.95,95.17 -42.18,136.57 -129.56,146.02 -0.32,0.03 -0.93,0.16 -1.31,0.37 -20.54,97.58 -116.6,97.55 -153.37,8.55 -54.71,-132.42 -75.3,-281.42 41.1,-385.97zm95.69 373.69c-16.6,79.84 -90.04,80.98 -121.1,5.8 -64.39,-155.88 -59.47,-282.01 38.65,-368.54 17.33,-28.95 31.23,-57.42 70.03,-94.87 63.44,-61.23 100.82,-65.08 114.1,-19.19 6.88,23.79 24.92,38.66 52.79,42.12 103.15,12.77 117.58,53.28 52.79,120.18 -25.03,25.85 -28.49,43.12 -9.98,51.49 47.33,21.39 14.46,76.31 -37.58,80.29 -27.35,2.09 -32.87,18.31 -29.04,42.7 13.38,85.21 -37.06,118.02 -114.61,126.5l0.01 0c-8.3,0.81 -14.58,6.35 -15.99,13.21l-0.07 0.32zm377.83 -789.7c14.37,0 26.02,11.65 26.02,26.02 0,14.37 -11.65,26.02 -26.02,26.02 -14.37,0 -26.02,-11.65 -26.02,-26.02 0,-14.37 11.65,-26.02 26.02,-26.02zm440.95 68.48c11.08,0 20.06,8.99 20.06,20.06 0,11.07 -8.98,20.06 -20.06,20.06 -11.07,0 -20.05,-8.99 -20.05,-20.06 0,-11.07 8.98,-20.06 20.05,-20.06zm-170.34 -57.36c30.65,0 55.5,24.84 55.5,55.49 0,30.65 -24.85,55.49 -55.5,55.49 -30.64,0 -55.49,-24.84 -55.49,-55.49 0,-30.65 24.85,-55.49 55.49,-55.49zm-336.95 152.47c53.68,-144.94 136.67,-50.38 122.17,46.54 -11.42,76.36 -50.88,106.44 -96.32,81.46 -37.6,-20.67 -47.27,-70.2 -25.85,-128zm66.34 -180.58c23.75,0 43.01,19.26 43.01,43.01 0,23.75 -19.26,43.01 -43.01,43.01 -23.75,0 -43.01,-19.26 -43.01,-43.01 0,-23.75 19.26,-43.01 43.01,-43.01zm440.95 68.48c20.45,0 37.04,16.59 37.04,37.04 0,20.45 -16.59,37.04 -37.04,37.04 -20.45,0 -37.04,-16.59 -37.04,-37.04 0,-20.45 16.59,-37.04 37.04,-37.04zm-170.34 -57.37c40.03,0 72.48,32.46 72.48,72.48 0,40.03 -32.46,72.48 -72.48,72.48 -40.02,0 -72.48,-32.46 -72.48,-72.48 0,-40.03 32.46,-72.48 72.48,-72.48zm-352.88 163.57c9.9,-26.73 25.77,-59.51 50.32,-75.77 19.85,-13.14 42.33,-13.21 61.88,0.25 38.21,26.26 49.11,87.64 42.69,130.48 -4.7,31.42 -15.91,68.39 -41.42,89.34 -24.01,19.72 -53.31,19.09 -79.88,4.48 -54.34,-29.88 -52.56,-97.59 -33.6,-148.78z"/>
   <path class="fil0" d="M577.88 665.93c17.5,0 31.68,14.19 31.68,31.68 0,17.5 -14.18,31.68 -31.68,31.68 -17.49,0 -31.68,-14.18 -31.68,-31.68 0,-17.49 14.19,-31.68 31.68,-31.68z"/>
   <path class="fil1" d="M2251.16 1526.31c-6.27,0 -11.1,2.26 -14.48,6.83 -3.39,4.54 -5.09,10.81 -5.09,18.82 0,8.3 1.53,14.69 4.6,19.15 3.03,4.45 8.03,6.68 14.97,6.68 3.13,0 6.45,-0.44 10,-1.27 3.56,-0.84 6.62,-1.85 9.22,-3.04l0 13.39c-6.47,2.87 -13.13,4.31 -19.89,4.31 -11.13,0 -19.75,-3.41 -25.87,-10.21 -6.13,-6.8 -9.2,-16.45 -9.2,-29 0,-12.09 3.09,-21.6 9.31,-28.56 6.21,-6.97 14.86,-10.47 25.94,-10.47 7.77,0 15.53,1.96 23.18,5.93l-5.49 12.12c-5.99,-3.09 -11.72,-4.66 -17.21,-4.66zm-67.17 25.68c0,-11.28 2.83,-21.86 8.47,-31.75 5.64,-9.89 13.42,-17.7 23.31,-23.39 9.86,-5.7 20.53,-8.56 31.92,-8.56 11.31,0 21.89,2.83 31.78,8.47 9.86,5.64 17.67,13.42 23.36,23.31 5.7,9.89 8.56,20.53 8.56,31.92 0,11.13 -2.75,21.6 -8.21,31.37 -5.5,9.77 -13.16,17.58 -23.05,23.45 -9.89,5.87 -20.7,8.82 -32.44,8.82 -11.68,0 -22.47,-2.92 -32.35,-8.77 -9.89,-5.84 -17.58,-13.67 -23.08,-23.42 -5.52,-9.77 -8.27,-20.27 -8.27,-31.46zm10.41 0c0,9.63 2.4,18.53 7.17,26.74 4.77,8.21 11.28,14.69 19.52,19.43 8.24,4.74 17.12,7.14 26.6,7.14 9.6,0 18.54,-2.43 26.78,-7.25 8.24,-4.83 14.72,-11.34 19.43,-19.49 4.71,-8.16 7.08,-17.01 7.08,-26.57 0,-9.48 -2.4,-18.37 -7.17,-26.63 -4.77,-8.27 -11.28,-14.77 -19.58,-19.52 -8.27,-4.77 -17.11,-7.14 -26.54,-7.14 -9.48,0 -18.3,2.35 -26.46,7.06 -8.18,4.69 -14.69,11.13 -19.54,19.4 -4.86,8.25 -7.29,17.18 -7.29,26.84z"/>
   <g>
    <polygon class="fil0" points="568.91,2290.48 752.9,2290.48 1182.2,2290.48 1120.87,2474.47 752.9,2474.47 752.9,2842.45 1120.87,2842.45 1120.87,3026.44 752.9,3026.44 568.91,3026.44 568.91,2842.45 568.91,2474.47 "/>
    <polygon class="fil0" points="1550.18,2474.47 1182.2,2474.47 1243.54,2290.48 1550.18,2290.48 1734.17,2290.48 1734.17,2474.47 1734.17,2566.46 1734.17,2750.45 1550.18,2750.45 1513.38,2750.45 1734.17,3026.44 1550.18,3026.44 1366.19,2796.45 1366.19,3026.44 1182.2,3026.44 1182.2,2750.45 1182.2,2566.46 1366.19,2566.46 1550.18,2566.46 "/>
    <path class="fil0" d="M1795.5 2842.45l551.97 0 0 183.99 -551.97 0 0 -183.99zm0 -275.98l551.97 0 0 183.99 -551.97 0 0 -183.99zm0 -275.98l551.97 0 0 183.99 -551.97 0 0 -183.99z"/>
    <polygon class="fil0" points="2592.79,2474.47 2592.79,2842.45 2776.78,2842.45 2776.78,2474.47 2960.77,2290.48 2960.77,2842.45 2960.77,3026.44 2776.78,3026.44 2592.79,3026.44 2408.8,3026.44 2408.8,2842.45 2408.8,2290.48 "/>
    <polygon class="fil0" points="3206.09,2290.48 3390.08,2658.45 3574.07,3026.44 3758.05,3026.44 3574.07,2658.45 3758.05,2290.48 3574.07,2290.48 3390.08,2658.45 3206.09,3026.44 3022.1,3026.44 3206.09,2658.45 3022.1,2290.48 "/>
   </g>
  </g>
 </g>
</svg>
