<?xml version="1.0" encoding="UTF-8"?>
<!DOCTYPE svg PUBLIC "-//W3C//DTD SVG 1.1//EN" "http://www.w3.org/Graphics/SVG/1.1/DTD/svg11.dtd">
<!-- Creator: CorelDRAW 2021 (64-Bit) -->
<svg xmlns="http://www.w3.org/2000/svg" xml:space="preserve" width="103.945mm" height="72.9884mm" version="1.1" style="shape-rendering:geometricPrecision; text-rendering:geometricPrecision; image-rendering:optimizeQuality; fill-rule:evenodd; clip-rule:evenodd"
viewBox="0 0 3043.7 2137.24"
 xmlns:xlink="http://www.w3.org/1999/xlink"
 xmlns:xodm="http://www.corel.com/coreldraw/odm/2003">
 <defs>
  <style type="text/css">
   <![CDATA[
    .fil0 {fill:black}
    .fil1 {fill:black;fill-rule:nonzero}
   ]]>
  </style>
 </defs>
 <g id="Layer_x0020_1">
  <metadata id="CorelCorpID_0Corel-Layer"/>
  <g id="_2078849565744">
   <path class="fil0" d="M889.87 151.61c24.2,-17.91 54.14,-28.51 86.55,-28.51 21.26,0 41.46,4.56 59.67,12.76l-0 -0 0.02 0.01c1.52,0.69 3.03,1.4 4.52,2.13 12.1,5.12 26.14,6.52 40.18,1.1 1.98,-0.98 3.98,-1.89 6.02,-2.76l0.02 -0.01 0 0c13.59,-5.75 28.53,-8.93 44.21,-8.93 24.82,0 47.77,7.96 66.46,21.46 -110.52,53.89 -200.68,80.8 -279.11,97.9 -167.38,36.5 -297.78,119.32 -364.32,259.73 -32.99,69.6 10.33,84.25 35.59,49.13 21.52,-29.92 57.24,-55.83 117.44,-89.73 14.66,-8.26 31.52,-17.85 54.8,-21.08 94.41,-13.09 187.98,-49.38 260.54,-82.14 53.03,-23.95 113.34,-16.33 181.45,-13.16 35.77,1.66 76.64,5.7 67.17,-39.38 -4.27,-20.34 3.28,-36.2 23.68,-47.81 15.82,-9 29.83,-21.22 46.91,-42.08 15.07,-18.41 38.99,-30.92 70.12,-36.88 68.04,-13.02 160.79,-12.84 181.75,-46.7 3.78,-6.11 12.88,-11.83 28.8,-19.37 13.47,-6.38 18.54,-15.57 4.71,-24.09 -17.27,-10.64 -48.73,-14.22 -100.53,-8.38 -29.43,3.32 -42.23,3.48 -38.69,-7.67 21.69,-13.05 47.09,-20.57 74.24,-20.57 62.53,0 115.76,39.82 135.74,95.48l0.01 -0.01 0.04 0.13c0.46,1.28 0.89,2.58 1.32,3.87 4.7,12 13.58,18.53 31.08,20.95 2.49,0.21 4.97,0.46 7.44,0.75l0.08 0.01 -0.01 0c53.74,6.19 102.4,29.03 140.71,63.23 35,2.36 66.53,17.36 90.08,40.47 24.6,-20.24 56.1,-32.39 90.45,-32.39 41.47,0 78.79,17.72 104.83,46 17.96,-22.39 45.54,-36.73 76.47,-36.73 30.49,0 57.73,13.93 75.7,35.77 6.84,-22.53 27.77,-38.92 52.53,-38.92 30.31,0 54.89,24.58 54.89,54.89 0,17.54 -8.23,33.16 -21.03,43.21 12,13.76 19.27,31.75 19.27,51.44 0,7.94 -1.18,15.59 -3.38,22.81l0 0c-0.35,1.16 -0.73,2.3 -1.14,3.44 -3.14,14.13 13.06,25.9 29.79,21.18 10.47,-4.49 22,-6.97 34.11,-6.97 47.88,0 86.71,38.83 86.71,86.71 0,28.07 -13.35,53.02 -34.03,68.87 -3.96,39.53 -37.33,70.39 -77.9,70.39 -32.73,0 -60.77,-20.09 -72.47,-48.61 -1.77,0.11 -3.56,0.16 -5.36,0.16 -49.6,0 -89.82,-40.21 -89.82,-89.81 0,-8.27 1.12,-16.27 3.21,-23.88l-0 0 0.01 -0.01c0.71,-2.59 1.54,-5.14 2.48,-7.64 6.28,-23.08 -1.94,-35.6 -11.97,-34.84 -0.87,0.18 -1.75,0.35 -2.63,0.49 -2.46,0.39 -4.98,0.59 -7.54,0.59 -12.87,0 -24.56,-5.07 -33.17,-13.32 -2.24,-0.04 -4.47,-0.16 -6.67,-0.34l0 0 -0.01 -0c-2.49,-0.21 -4.97,-0.52 -7.4,-0.92 -11.08,-0.52 -15.73,4.06 -15.41,13.85 0.3,1.98 0.53,3.99 0.69,6.01l0 0.01c0.16,2.03 0.23,4.08 0.23,6.15 0,37.92 -26.27,69.71 -61.59,78.18 -13.08,26.69 -40.51,45.08 -72.24,45.08 -29.27,0 -54.88,-15.64 -68.94,-39.02 -4.36,0.73 -8.83,1.12 -13.4,1.12 -5.13,0 -10.15,-0.48 -15.02,-1.4l-0.01 -0 -0.01 0c-0.57,-0.11 -1.14,-0.22 -1.71,-0.35 -7.59,-1.12 -11.25,4.01 -8.99,11.77l0.44 1.34 0.01 0.03 0 0c3.8,11.82 5.86,24.42 5.86,37.5 0,4.69 -0.27,9.33 -0.78,13.88 -0.54,7.26 2.5,11.07 8.3,12.64l0.72 0.18 0.08 0.02 0 0c51.36,13.24 89.31,59.87 89.31,115.36 0,62.51 -48.15,113.77 -109.37,118.74l0.01 0.01 -0.08 0c-1.28,0.1 -2.56,0.19 -3.85,0.25 -11.56,1.36 -15.8,7.98 -13.8,16.74 0.27,0.87 0.52,1.74 0.76,2.63 1.89,6.95 2.9,14.26 2.9,21.81 0,2.69 -0.13,5.36 -0.38,7.98l0 0 -0.17 1.58c-0.35,7.52 6.57,10 15.13,10.51 1.01,-0.05 2.04,-0.08 3.06,-0.08 6.6,0 12.96,1.08 18.89,3.06 12.65,-7.83 27.56,-12.35 43.53,-12.35 45.75,0 82.84,37.09 82.84,82.84 0,45.75 -37.09,82.84 -82.84,82.84 -29.04,0 -54.58,-14.95 -69.37,-37.57 -21.97,-2.55 -40.29,-17.05 -48.31,-36.82l-0 0 -0.05 -0.14c-0.21,-0.52 -0.41,-1.05 -0.61,-1.58 -8.09,-19.11 -34.03,-15.76 -43.26,-1.67 -0.55,1.07 -1.12,2.12 -1.71,3.17l-0.02 0.05 -0 -0.01c-14.24,25.07 -41.18,41.99 -72.07,41.99 -25.08,0 -47.56,-11.15 -62.75,-28.77 -15.79,5.94 -32.88,9.19 -50.75,9.19 -41.62,0 -79.11,-17.64 -105.43,-45.84l0 0.01 -0.04 -0.05c-1.32,-1.41 -2.61,-2.85 -3.87,-4.32 -9.43,-9.34 -15.99,-6.65 -20.43,5.67 -0.45,1.48 -0.91,2.96 -1.39,4.43l-0.04 0.14 -0 -0.01c-18.91,57.66 -64.76,103.1 -122.67,121.44 -59.92,98.49 -149.27,177.11 -255.86,223.61 -70.4,62.46 -156.59,107.51 -251.84,128.4l0.01 0.01 -0.36 0.07c-29.89,6.53 -60.66,10.68 -92.12,12.25 -156.97,11.12 -344.37,-21.65 -499.69,-110.83 -21.85,-12.13 -42.81,-25.66 -62.75,-40.49 -0.48,-0.35 -0.98,-0.69 -1.46,-1.04l0.06 -0.01c-136.89,-102.44 -225.51,-265.85 -225.51,-449.98 0,-49.02 6.3,-96.57 18.09,-141.9 -0.86,-12.21 -1.33,-24.53 -1.33,-36.96 0,-14.22 0.6,-28.3 1.73,-42.24 24.97,29.79 62.95,21.57 72.77,-25.66l0.04 -0.23c1,-4.85 5.43,-8.76 11.29,-9.33l-0 0c54.77,-5.99 90.38,-29.16 80.94,-89.33 -2.7,-17.23 1.2,-28.68 20.51,-30.16 36.75,-2.81 59.96,-41.59 26.54,-56.7 -13.07,-5.91 -10.63,-18.11 7.05,-36.36 45.75,-47.24 35.57,-75.85 -37.28,-84.87 -6.52,-0.81 -12.28,-2.5 -17.24,-5.02 35.84,-33.1 76.38,-61.18 120.51,-83.15 1.64,19.46 10.41,34.88 25.88,43.39 32.09,17.64 59.95,-3.6 68.02,-57.52 1.11,-7.4 1.41,-14.78 1.02,-21.93 40.35,-10.91 82.66,-17.06 126.28,-17.81l-0.05 -0.04c130.26,-2.4 258.14,19.06 328.79,-35.8zm-585.89 546.18c-108.11,-38.48 -158.02,52.36 -153.98,172.7 0.29,8.6 6.44,10.19 6.66,2.04 0.83,-30.45 7.21,-56.57 21.11,-76.96 0.44,57.03 40.85,109.08 89.19,139.39 -14.61,-1.45 -40.9,-16.11 -51.57,-27.21 -3.87,-4.04 -7.46,0.42 -3.6,5.7 28.01,38.26 68.66,53.19 129.71,28.83 -56.8,67.04 -121.68,59.47 -190.07,9.01 -6.72,-4.96 -9.59,1.48 -3.9,6.61 87.01,78.34 176.45,69.73 232.2,-39.01 46.97,-91.62 31.07,-182.95 -57.24,-245.93 -124.47,-88.76 -212.14,-2.77 -212.81,134.26 -0.05,10.7 7.65,10.25 8.68,0.91 12.58,-114.68 62.98,-182.57 185.62,-110.35zm358.78 -103.63c94.26,-138.2 190.89,-125.82 242.61,-32.77 44.61,80.27 54.36,212.5 -31.04,286.78 -98.48,85.65 -239.22,4.31 -247.05,-108.57 -0.85,-12.26 5.63,-11.32 7.63,-2.42 24.6,109.19 128.06,160.21 230.92,79.15 -46.94,24.03 -87.48,18.76 -120.25,-17.29 -5.93,-6.52 0.2,-7.45 6,-3.08 16.88,12.73 38.7,16.87 63.63,14.96 -52.83,-29.82 -84.54,-80.74 -85.17,-162.76 -21.34,35.88 -23.28,73.2 -22.79,110.69 0.09,6.59 -4.46,4.44 -6.02,-1.05 -13.96,-49.18 -9.24,-101.72 27.07,-154.6 33.97,-49.46 84.31,-67.61 150.55,-47.41 -61.44,-70.04 -131.48,-47 -207.65,43.61 -7.94,9.44 -16.58,6.71 -8.42,-5.26zm781.58 -318.64c26.09,-20.47 43.11,-45.67 75.74,-21.81 31.01,22.68 21.72,66.23 1.59,82.48 -36.05,29.09 -140.59,-11.02 -77.32,-60.67zm176.26 19.5c11.44,0 20.71,9.27 20.71,20.71 0,11.44 -9.27,20.71 -20.71,20.71 -11.43,0 -20.71,-9.27 -20.71,-20.71 0,-11.44 9.27,-20.71 20.71,-20.71zm-333.06 52.56c8.43,0 15.26,6.83 15.26,15.26 0,8.43 -6.83,15.26 -15.26,15.26 -8.43,0 -15.26,-6.83 -15.26,-15.26 0,-8.43 6.83,-15.26 15.26,-15.26zm572.06 -331.94c-34.02,3.19 -56.85,17.32 -66.82,41.55 8.05,1.58 14.64,4.82 16.18,10.98 2.27,9.05 -9.21,18.6 -21.82,24.75 1.38,34.75 21.28,61.61 54,73.12 -1.09,0.05 -2.18,0.07 -3.29,0.07 -38.93,0 -71.09,-28.97 -76.11,-66.53 -3.22,-0.47 -6.22,-1.65 -8.82,-3.38 3.51,44.03 40.34,78.67 85.28,78.67 25.55,0 48.49,-11.2 64.16,-28.96 -2.89,0.73 -5.92,1.13 -9.04,1.13 -20.14,0 -36.48,-16.33 -36.48,-36.48 0,-20.15 16.33,-36.48 36.48,-36.48 12.71,0 23.89,6.5 30.42,16.35l0.01 -1.12c0,-47.25 -38.3,-85.56 -85.56,-85.56 -35.91,0 -66.66,22.13 -79.34,53.5 1.6,-0.46 3.27,-0.75 4.99,-0.83l0 0c1.46,-0.13 3.05,-0.25 4.75,-0.34 12.39,-25.78 38.74,-43.57 69.25,-43.57 7.55,0 14.85,1.1 21.74,3.12zm172.15 926.32c15.38,0 29.43,5.65 40.21,14.99 -8.21,-3.38 -17.2,-5.24 -26.63,-5.24 -38.68,0 -70.04,31.36 -70.04,70.04 0,2.23 0.11,4.44 0.31,6.62 -3.4,-7.63 -5.29,-16.08 -5.29,-24.97 0,-33.93 27.5,-61.43 61.43,-61.43zm918.29 -398.53c14.37,0 27.29,6.25 36.18,16.17 -7.01,-3.82 -15.04,-5.99 -23.58,-5.99 -27.22,0 -49.29,22.07 -49.29,49.29 0,11.12 3.68,21.37 9.89,29.62 -13.12,-8.7 -21.77,-23.59 -21.77,-40.51 0,-26.83 21.74,-48.57 48.57,-48.57zm-527.06 549.85c4.07,0 7.97,0.73 11.58,2.07l-0.22 -0c-22.34,0 -40.45,18.11 -40.45,40.44 0,3 0.33,5.92 0.95,8.73 -3.29,-5.17 -5.2,-11.31 -5.2,-17.89 0,-18.42 14.93,-33.35 33.35,-33.35zm-205.72 -11.66c2.14,0 4.19,0.39 6.09,1.09l-0.12 0c-11.75,0 -21.27,9.52 -21.27,21.27 0,1.58 0.17,3.11 0.5,4.59 -1.73,-2.72 -2.74,-5.95 -2.74,-9.41 0,-9.69 7.85,-17.54 17.54,-17.54zm50.52 -102.39c3.44,0 6.74,0.62 9.79,1.75l-0.18 -0c-18.89,0 -34.21,15.32 -34.21,34.21 0,2.54 0.28,5.01 0.8,7.39 -2.78,-4.37 -4.4,-9.57 -4.4,-15.14 0,-15.58 12.63,-28.2 28.2,-28.2zm275.84 -171.07c4.73,0 9.27,0.85 13.47,2.4l-0.25 -0.01c-25.99,0 -47.06,21.07 -47.06,47.07 0,3.49 0.38,6.89 1.1,10.16 -3.83,-6.01 -6.06,-13.16 -6.06,-20.82 0,-21.43 17.37,-38.8 38.8,-38.8zm-64.57 -344.62c20.32,0 38.57,8.83 51.14,22.85 -9.9,-5.4 -21.25,-8.47 -33.32,-8.47 -38.48,0 -69.67,31.19 -69.67,69.66 0,15.71 5.2,30.2 13.97,41.86 -18.54,-12.29 -30.77,-33.34 -30.77,-57.25 0,-37.91 30.73,-68.65 68.65,-68.65zm-1256.13 510.71c22.51,0 43.19,7.83 59.48,20.91 -11.13,-4.58 -23.33,-7.11 -36.11,-7.11 -52.49,0 -95.04,42.56 -95.04,95.05 0,29.98 13.88,56.71 35.57,74.13 -34.58,-14.22 -58.93,-48.23 -58.93,-87.93 0,-40.03 24.75,-74.29 59.79,-88.29 -4.81,-16.09 -7.38,-33.14 -7.38,-50.78 0,-97.95 79.4,-177.34 177.34,-177.34 19.47,0 38.2,3.15 55.74,8.95 -113.88,4.66 -204.77,98.43 -204.77,213.45l0 0.04c4.67,-0.71 9.46,-1.07 14.33,-1.07zm656.69 -713.33c22.4,0 42.93,8.01 58.89,21.32 -12.33,-4.74 -25.73,-7.35 -39.73,-7.35 -55.77,0 -101.91,41.22 -109.63,94.86 -1.01,-5.46 -1.54,-11.08 -1.54,-16.82 0,-36.26 20.98,-67.62 51.46,-82.61 -31.98,-26.62 -73.11,-42.63 -117.98,-42.63 -48.07,0 -91.84,18.38 -124.68,48.48 28.51,-41.4 76.23,-68.55 130.3,-68.55 49.51,0 93.69,22.76 122.68,58.39 9.47,-3.29 19.64,-5.09 30.23,-5.09zm65.51 389.75c25.75,0 49.3,9.46 67.34,25.1 -13.75,-5.65 -28.8,-8.78 -44.59,-8.78 -64.78,0 -117.3,52.52 -117.3,117.3 0,3.74 0.18,7.44 0.52,11.09 -5.7,-12.78 -8.86,-26.93 -8.86,-41.83 0,-56.82 46.07,-102.89 102.89,-102.89zm-397.49 -127.33c13.65,-0.65 26.27,4.29 35.65,12.8 -4.05,-0.71 -8.24,-0.99 -12.52,-0.79 -31.08,1.48 -55.08,27.87 -53.6,58.96 0.32,6.71 1.8,13.09 4.24,18.95 -12.02,-8.5 -20.14,-22.25 -20.89,-38.09 -1.3,-27.32 19.79,-50.53 47.12,-51.83zm133.58 -6c17.49,0 33.23,7.5 44.18,19.46 -7.62,-3.37 -16.04,-5.24 -24.91,-5.24 -33.95,0 -61.49,27.41 -61.72,61.3 8.29,-3.53 17.42,-5.49 27,-5.49 15.09,0 29.05,4.85 40.4,13.07 -4.66,-1 -9.5,-1.52 -14.46,-1.52 -38.09,0 -68.97,30.88 -68.97,68.96 0,23 11.26,43.36 28.56,55.89 -31.15,-6.64 -54.51,-34.31 -54.51,-67.44 0,-23.21 11.47,-43.75 29.05,-56.25 -2.91,-7.05 -4.52,-14.77 -4.52,-22.87 0,-33.07 26.81,-59.89 59.89,-59.89zm397.39 -84.33c11.86,-8.12 25.82,-10.83 38.97,-8.66 -7.66,1.46 -15.15,4.49 -21.99,9.17 -18.95,12.99 -27.83,35.18 -24.75,56.48 4.03,0.53 8.06,1.6 12,3.23 10.26,4.25 18.23,11.68 23.26,20.67 -4.02,-4.52 -9.1,-8.22 -15.07,-10.7 -21.16,-8.77 -45.42,1.27 -54.19,22.42 -8.77,21.16 1.27,45.42 22.42,54.19 5.96,2.47 12.18,3.45 18.22,3.1 -9.92,2.8 -20.81,2.4 -31.07,-1.85 -24.26,-10.06 -35.76,-37.87 -25.71,-62.13 6.53,-15.75 20.55,-26.13 36.22,-28.71 -5.3,-21.11 2.68,-44.2 21.68,-57.22zm186.95 -156.51c15.48,6.42 27.52,17.63 35.12,31.2 -6.08,-6.82 -13.75,-12.42 -22.75,-16.15 -31.93,-13.24 -68.55,1.91 -81.78,33.84 -13.24,31.93 1.91,68.55 33.84,81.79 9,3.73 18.38,5.21 27.5,4.69 -14.97,4.21 -31.41,3.62 -46.89,-2.8 -36.61,-15.18 -53.98,-57.16 -38.8,-93.77 15.18,-36.61 57.16,-53.98 93.77,-38.8zm-48.16 799.75c12.92,0 23.4,10.48 23.4,23.4 0,12.92 -10.47,23.4 -23.4,23.4 -12.92,0 -23.4,-10.48 -23.4,-23.4 0,-12.92 10.48,-23.4 23.4,-23.4zm48.75 -102.32c17.91,0 32.43,14.52 32.43,32.43 0,17.91 -14.52,32.43 -32.43,32.43 -17.91,0 -32.43,-14.52 -32.43,-32.43 0,-17.91 14.52,-32.43 32.43,-32.43zm156.49 111.95c22.23,0 40.25,18.02 40.25,40.25 0,22.23 -18.02,40.25 -40.25,40.25 -22.23,0 -40.25,-18.02 -40.25,-40.25 0,-22.23 18.02,-40.25 40.25,-40.25zm120.69 -285.97c26.03,0 47.14,21.11 47.14,47.14 0,26.03 -21.11,47.14 -47.14,47.14 -26.03,0 -47.14,-21.11 -47.14,-47.14 0,-26.03 21.11,-47.14 47.14,-47.14zm404.84 -268.35c7.83,0 15.3,1.52 22.15,4.27l0 -0 37.66 12.8 0.07 0.02c20.73,7.05 35.66,26.69 35.66,49.81 0,29.04 -23.55,52.59 -52.59,52.59 -0.57,0 -1.13,-0.01 -1.69,-0.03l-40.31 -0.63 -0.93 0.01c-0.91,0 -1.81,-0.03 -2.71,-0.06l-0.1 -0 0 0c-31.51,-1.47 -56.61,-27.48 -56.61,-59.36 0,-32.82 26.61,-59.42 59.42,-59.42zm-260.27 7.02c2.38,-1.93 4.91,-3.68 7.58,-5.23l0.03 -0.02 0 0c8.76,-5.09 18.94,-8 29.8,-8 32.82,0 59.42,26.61 59.42,59.42 0,23.32 -13.44,43.5 -32.99,53.23l0 0 -54.08 33.62 0 0c-10.2,9.06 -23.62,14.57 -38.34,14.57 -31.89,0 -57.74,-25.85 -57.74,-57.74 0,-19.2 9.37,-36.2 23.79,-46.7l-0.01 -0 0.13 -0.09c0.7,-0.51 1.41,-0.99 2.13,-1.47l60.28 -41.6z"/>
   <path class="fil0" d="M1283.15 335.36c1.43,-0.23 2.9,-0.35 4.39,-0.35 15.36,0 27.82,12.46 27.82,27.82 0,15.36 -12.46,27.82 -27.82,27.82 -15.36,0 -27.82,-12.46 -27.82,-27.82 0,-1.39 0.1,-2.77 0.3,-4.11 -0.54,0.2 -1.09,0.39 -1.65,0.57 -16.49,5.4 -37.81,3.57 -55.04,2.77 -31.69,-1.48 -63.8,-4.3 -95.51,-3.58 -27.59,0.63 -54.85,4.2 -80.19,15.64 -83.25,37.59 -173.14,70.54 -263.99,83.13 -19.31,2.68 -33.7,10.2 -50.36,19.58 -37.81,21.29 -87.61,50.25 -113.4,86.12 -6.71,9.34 -15.91,17.62 -26.91,21.45 -10.52,3.67 -21.98,2.83 -30.82,-4.31 -22.73,-18.37 -9.55,-57.59 0.59,-78.99 72,-151.93 213.28,-231.8 373,-266.63 71.57,-15.61 139.91,-37.21 207.46,-65.64 96.42,-40.58 188.21,-93.03 275.44,-150.54 23.75,-15.66 59.24,-22.79 86.77,-15.34 35.16,9.52 41.65,38.65 20.9,67.24 -0.63,0.86 -1.71,2.37 -2.82,4.04 7.67,-0.25 18.11,-1.51 21.61,-1.9 31.19,-3.52 80.52,-7.1 108.53,10.17 9.53,5.87 16.78,15.41 13.34,27.08 -2.69,9.14 -11.05,15.16 -19.26,19.05 -5.06,2.4 -20.47,9.74 -23.5,14.64 -15.14,24.46 -55.56,32.49 -81.8,36.94 -35.92,6.08 -72.5,8.64 -108.27,15.49 -23.1,4.42 -47.46,13.8 -62.76,32.5 -14.65,17.9 -30.17,33.53 -50.41,45.05 -14.12,8.03 -21.03,17.95 -17.6,34.31 2.11,10.06 2.24,19.58 -0.23,27.8zm-729.06 171.14c66.54,-140.41 196.94,-223.23 364.32,-259.73 122.66,-26.75 274.04,-77.48 487.14,-217.96 45.96,-30.3 128.04,-17.6 90.59,34.03 -18.32,25.25 -8.42,26.36 30.37,21.99 51.8,-5.84 83.26,-2.26 100.53,8.38 13.83,8.52 8.76,17.71 -4.71,24.09 -15.91,7.54 -25.02,13.26 -28.8,19.37 -20.96,33.86 -113.71,33.68 -181.75,46.7 -31.13,5.96 -55.06,18.47 -70.12,36.88 -17.08,20.87 -31.09,33.09 -46.91,42.08 -20.4,11.61 -27.95,27.47 -23.68,47.81 9.47,45.08 -31.4,41.04 -67.17,39.38 -68.11,-3.17 -128.42,-10.79 -181.45,13.16 -72.55,32.76 -166.13,69.05 -260.54,82.14 -23.29,3.23 -40.15,12.82 -54.8,21.08 -60.2,33.9 -95.92,59.81 -117.44,89.73 -25.26,35.12 -68.57,20.47 -35.59,-49.13zm1446.87 -470.88c18.96,0 34.32,15.37 34.32,34.33 0,18.96 -15.37,34.33 -34.32,34.33 -18.96,0 -34.33,-15.37 -34.33,-34.33 0,-18.96 15.37,-34.33 34.33,-34.33zm129.78 57.23c16.98,0 30.75,13.77 30.75,30.75 0,16.98 -13.77,30.75 -30.75,30.75 -16.98,0 -30.75,-13.77 -30.75,-30.75 0,-16.98 13.77,-30.75 30.75,-30.75zm-237.41 -18.78c20.15,0 36.48,16.33 36.48,36.48 0,20.14 -16.33,36.48 -36.48,36.48 -20.14,0 -36.48,-16.33 -36.48,-36.48 0,-20.15 16.33,-36.48 36.48,-36.48zm-120.27 24.15c-2.51,1.02 -5.26,1.58 -8.14,1.58 -11.99,0 -21.7,-9.72 -21.7,-21.7 0,-11.63 9.15,-21.13 20.65,-21.68l0 0c14.18,-1.23 41.72,-1.74 45.1,11.74 3.12,12.47 -19.82,25.87 -35.9,30.06l0 -0zm-328.71 177.3c26.09,-20.47 43.11,-45.67 75.74,-21.81 31.01,22.68 21.72,66.23 1.59,82.48 -36.05,29.09 -140.59,-11.02 -77.32,-60.67zm176.26 19.5c11.44,0 20.71,9.27 20.71,20.71 0,11.44 -9.27,20.71 -20.71,20.71 -11.43,0 -20.71,-9.27 -20.71,-20.71 0,-11.44 9.27,-20.71 20.71,-20.71zm-333.06 52.56c8.43,0 15.26,6.83 15.26,15.26 0,8.43 -6.83,15.26 -15.26,15.26 -8.43,0 -15.26,-6.83 -15.26,-15.26 0,-8.43 6.83,-15.26 15.26,-15.26zm713.42 -324.52c25.89,0 46.89,21 46.89,46.89 0,25.89 -21,46.89 -46.89,46.89 -25.89,0 -46.89,-21 -46.89,-46.89 0,-25.89 21,-46.89 46.89,-46.89zm129.78 57.23c23.91,0 43.31,19.4 43.31,43.31 0,23.91 -19.4,43.31 -43.31,43.31 -23.91,0 -43.31,-19.4 -43.31,-43.31 0,-23.92 19.4,-43.31 43.31,-43.31zm-237.41 -18.78c27.08,0 49.04,21.96 49.04,49.04 0,27.08 -21.96,49.04 -49.04,49.04 -27.08,0 -49.04,-21.96 -49.04,-49.04 0,-27.08 21.96,-49.04 49.04,-49.04zm-116.36 48.67c-3.85,1.45 -7.93,2.18 -12.05,2.18 -18.92,0 -34.27,-15.35 -34.27,-34.27 0,-18.18 14.22,-33.21 32.34,-34.21 18.88,-1.62 52.39,-1.79 58.15,21.22 5.8,23.16 -25.67,40.02 -44.18,45.07zm-340.38 155.45c12.1,-9.5 23.78,-21.9 37.5,-28.85 18.98,-9.62 36.6,-5.51 53.42,6.78 17.69,12.93 26.43,32.84 25.1,54.56 -1.07,17.62 -9.09,36.58 -23.04,47.84 -23.59,19.03 -64.75,14.34 -89.89,0.41 -13.26,-7.35 -25.21,-18.91 -27.45,-34.56 -2.74,-19.2 10.2,-35.06 24.36,-46.17zm184.02 16.82c18.37,0 33.27,14.9 33.27,33.27 0,18.37 -14.9,33.27 -33.27,33.27 -18.37,0 -33.27,-14.9 -33.27,-33.27 0,-18.37 14.9,-33.27 33.27,-33.27z"/>
   <path class="fil0" d="M59.99 372.57c6.06,-10.19 11.79,-20.43 18.48,-30.27 9.37,-13.77 20.02,-26.07 32.01,-37.64 15.11,-14.58 38.58,-35.1 60.1,-38.37 21.52,-3.27 34.69,10.6 40.34,30.12 3.86,13.34 13.78,19.51 27.23,21.17 23.98,2.97 62.1,10.01 72.71,35.38 10.58,25.3 -11.88,52.8 -28.29,69.74 -2.48,2.56 -11.05,12.03 -11.89,16.48 0.4,0.25 0.88,0.48 1.16,0.61 20.48,9.26 29.35,29.08 18.74,49.44 -9.31,17.87 -29.68,28.66 -49.31,30.16 -2.48,0.19 -7.61,0.78 -9.08,3.28 -1.79,3.05 -1.01,9.78 -0.49,13.06 10.55,67.21 -29.79,96.44 -91.49,103.11 -0.23,0.03 -0.66,0.11 -0.92,0.26 -14.5,68.92 -82.35,68.89 -108.31,6.04 -38.64,-93.52 -53.18,-198.74 29.02,-272.57zm67.58 263.9c-11.72,56.38 -63.59,57.18 -85.52,4.09 -45.48,-110.08 -42,-199.15 27.29,-260.26 12.23,-20.45 22.05,-40.55 49.46,-67 44.8,-43.23 71.2,-45.96 80.58,-13.55 4.86,16.8 17.6,27.31 37.28,29.74 72.84,9.02 83.03,37.63 37.28,84.87 -17.68,18.25 -20.13,30.45 -7.05,36.36 33.43,15.11 10.22,53.89 -26.54,56.7 -19.31,1.48 -23.21,12.93 -20.51,30.16 9.45,60.17 -26.17,83.34 -80.94,89.33l0 0c-5.86,0.57 -10.3,4.48 -11.29,9.33l-0.04 0.23zm266.82 -557.68c10.15,0 18.38,8.23 18.38,18.38 0,10.15 -8.23,18.38 -18.38,18.38 -10.15,0 -18.38,-8.23 -18.38,-18.38 0,-10.15 8.23,-18.38 18.38,-18.38zm311.4 48.36c7.82,0 14.16,6.34 14.16,14.16 0,7.82 -6.34,14.16 -14.16,14.16 -7.82,0 -14.16,-6.34 -14.16,-14.16 0,-7.82 6.34,-14.16 14.16,-14.16zm-120.29 -40.51c21.64,0 39.19,17.54 39.19,39.19 0,21.65 -17.55,39.19 -39.19,39.19 -21.65,0 -39.19,-17.55 -39.19,-39.19 0,-21.65 17.55,-39.19 39.19,-39.19zm-237.96 107.68c37.91,-102.36 96.52,-35.58 86.28,32.87 -8.07,53.92 -35.93,75.16 -68.02,57.52 -26.55,-14.6 -33.38,-49.57 -18.26,-90.39zm46.85 -127.52c16.77,0 30.37,13.6 30.37,30.37 0,16.77 -13.6,30.37 -30.37,30.37 -16.77,0 -30.37,-13.6 -30.37,-30.37 0,-16.77 13.6,-30.37 30.37,-30.37zm311.4 48.36c14.44,0 26.16,11.72 26.16,26.16 0,14.44 -11.72,26.16 -26.16,26.16 -14.44,0 -26.16,-11.72 -26.16,-26.16 0,-14.44 11.72,-26.16 26.16,-26.16zm-120.29 -40.51c28.26,0 51.18,22.92 51.18,51.18 0,28.27 -22.92,51.18 -51.18,51.18 -28.27,0 -51.18,-22.92 -51.18,-51.18 0,-28.27 22.92,-51.18 51.18,-51.18zm-249.2 115.51c6.99,-18.87 18.2,-42.02 35.54,-53.51 14.01,-9.28 29.89,-9.32 43.7,0.17 26.98,18.55 34.68,61.89 30.15,92.14 -3.32,22.19 -11.24,48.3 -29.25,63.09 -16.95,13.93 -37.65,13.48 -56.41,3.17 -38.38,-21.1 -37.12,-68.92 -23.73,-105.07z"/>
   <path class="fil0" d="M408.1 470.28c12.36,0 22.37,10.02 22.37,22.37 0,12.36 -10.01,22.37 -22.37,22.37 -12.35,0 -22.37,-10.01 -22.37,-22.37 0,-12.35 10.02,-22.37 22.37,-22.37z"/>
   <path class="fil1" d="M1589.75 1077.87c-4.43,0 -7.84,1.6 -10.23,4.82 -2.39,3.2 -3.59,7.64 -3.59,13.29 0,5.86 1.08,10.37 3.25,13.52 2.14,3.14 5.67,4.72 10.57,4.72 2.21,0 4.56,-0.31 7.06,-0.9 2.52,-0.59 4.68,-1.31 6.52,-2.15l0 9.46c-4.57,2.02 -9.27,3.04 -14.05,3.04 -7.86,0 -13.94,-2.41 -18.27,-7.21 -4.33,-4.8 -6.49,-11.62 -6.49,-20.48 0,-8.54 2.18,-15.25 6.58,-20.17 4.39,-4.93 10.49,-7.39 18.31,-7.39 5.49,0 10.97,1.39 16.37,4.18l-3.88 8.56c-4.23,-2.18 -8.27,-3.29 -12.15,-3.29zm-47.43 18.14c0,-7.96 2,-15.44 5.98,-22.42 3.98,-6.98 9.48,-12.5 16.46,-16.52 6.96,-4.02 14.5,-6.04 22.54,-6.04 7.99,0 15.46,2 22.44,5.98 6.96,3.98 12.48,9.48 16.5,16.46 4.03,6.98 6.05,14.5 6.05,22.54 0,7.86 -1.94,15.25 -5.8,22.15 -3.88,6.9 -9.29,12.42 -16.28,16.56 -6.98,4.15 -14.62,6.23 -22.91,6.23 -8.25,0 -15.86,-2.06 -22.85,-6.19 -6.98,-4.12 -12.42,-9.65 -16.3,-16.54 -3.9,-6.9 -5.84,-14.32 -5.84,-22.22zm7.35 0c0,6.8 1.7,13.09 5.07,18.89 3.37,5.8 7.96,10.37 13.78,13.72 5.82,3.35 12.09,5.05 18.78,5.05 6.78,0 13.09,-1.72 18.91,-5.12 5.82,-3.41 10.4,-8.01 13.72,-13.77 3.32,-5.76 5,-12.01 5,-18.76 0,-6.7 -1.7,-12.97 -5.07,-18.81 -3.37,-5.84 -7.96,-10.43 -13.82,-13.78 -5.84,-3.37 -12.09,-5.05 -18.75,-5.05 -6.69,0 -12.92,1.66 -18.68,4.98 -5.78,3.31 -10.37,7.87 -13.8,13.7 -3.43,5.82 -5.15,12.13 -5.15,18.95z"/>
   <g>
    <polygon class="fil0" points="401.76,1617.51 531.69,1617.51 834.86,1617.51 791.55,1747.45 531.69,1747.45 531.69,2007.31 791.55,2007.31 791.55,2137.24 531.69,2137.24 401.76,2137.24 401.76,2007.31 401.76,1747.45 "/>
    <polygon class="fil0" points="1094.73,1747.45 834.86,1747.45 878.17,1617.51 1094.73,1617.51 1224.66,1617.51 1224.66,1747.45 1224.66,1812.41 1224.66,1942.34 1094.73,1942.34 1068.74,1942.34 1224.66,2137.24 1094.73,2137.24 964.79,1974.83 964.79,2137.24 834.86,2137.24 834.86,1942.34 834.86,1812.41 964.79,1812.41 1094.73,1812.41 "/>
    <path class="fil0" d="M1267.97 2007.31l389.8 0 0 129.93 -389.8 0 0 -129.93zm0 -194.9l389.8 0 0 129.93 -389.8 0 0 -129.93zm0 -194.9l389.8 0 0 129.93 -389.8 0 0 -129.93z"/>
    <polygon class="fil0" points="1831.01,1747.45 1831.01,2007.31 1960.94,2007.31 1960.94,1747.45 2090.87,1617.51 2090.87,2007.31 2090.87,2137.24 1960.94,2137.24 1831.01,2137.24 1701.07,2137.24 1701.07,2007.31 1701.07,1617.51 "/>
    <polygon class="fil0" points="2264.11,1617.51 2394.04,1877.38 2523.97,2137.24 2653.91,2137.24 2523.97,1877.38 2653.91,1617.51 2523.97,1617.51 2394.04,1877.38 2264.11,2137.24 2134.18,2137.24 2264.11,1877.38 2134.18,1617.51 "/>
   </g>
  </g>
 </g>
</svg>
