<?xml version="1.0" encoding="UTF-8"?>
<!DOCTYPE svg PUBLIC "-//W3C//DTD SVG 1.1//EN" "http://www.w3.org/Graphics/SVG/1.1/DTD/svg11.dtd">
<!-- Creator: CorelDRAW 2021 (64-Bit) -->
<svg xmlns="http://www.w3.org/2000/svg" xml:space="preserve" width="612.281mm" height="554.998mm" version="1.1" style="shape-rendering:geometricPrecision; text-rendering:geometricPrecision; image-rendering:optimizeQuality; fill-rule:evenodd; clip-rule:evenodd"
viewBox="0 0 273104.03 247553.24"
 xmlns:xlink="http://www.w3.org/1999/xlink"
 xmlns:xodm="http://www.corel.com/coreldraw/odm/2003">
 <defs>
  <style type="text/css">
   <![CDATA[
    .fil0 {fill:white;fill-rule:nonzero}
    .fil1 {fill:url(#id0);fill-rule:nonzero}
   ]]>
  </style>
  <linearGradient id="id0" gradientUnits="userSpaceOnUse" x1="101817.45" y1="121293.9" x2="184254.8" y2="46569.93">
   <stop offset="0" style="stop-opacity:1; stop-color:#1C9AD7"/>
   <stop offset="1" style="stop-opacity:1; stop-color:#55B7E8"/>
  </linearGradient>
 </defs>
 <g id="Layer_x0020_1">
  <metadata id="CorelCorpID_0Corel-Layer"/>
  <g id="_2463778258416">
   <path class="fil0" d="M22995.68 217181.56l55151.13 0 0 -15330.47 -55151.13 0 0 -11955.84 58091.9 0 0 -17258.85 -59297.11 0.04c-3663.89,0 -6411.79,289.26 -8291.95,915.95 -4965.53,1831.95 -8629.42,4869.1 -10943.45,9111.51 -1687.29,2314.03 -2555.07,6315.4 -2555.07,12052.27l0 31335.85c0,6267.18 1687.29,11184.5 5110.14,14800.17 4290.58,3953.15 8629.42,5929.7 12968.22,5929.7l64359.03 0 0 -17692.72 -59441.72 0 0 -11907.62zm156100.76 -12678.96c-3085.37,-1494.47 -7472.39,-2506.85 -13257.48,-3085.37 -2699.72,-289.26 -5977.92,-433.87 -9690.03,-530.3 -3181.81,-48.22 -7183.13,-96.43 -11955.84,-96.43l-8147.3 0c-2506.85,0 -4628.06,-48.22 -6315.4,-96.43 -3663.89,-48.22 -6411.74,-289.26 -8147.3,-723.13 -2940.76,-674.91 -4387.02,-2603.29 -4387.02,-5736.88 0,-3808.5 2844.33,-5736.88 8581.16,-5736.88l25116.93 0c4917.32,0 8050.91,626.74 9400.77,1831.95 1108.82,867.78 1639.12,2844.33 1639.12,5833.31l22658.21 0 0 -2362.25c0,-3760.32 -289.26,-6701.04 -819.56,-8870.47 -674.91,-2844.33 -1928.38,-5158.36 -3663.89,-6942.09 -4097.76,-4001.37 -12100.45,-6026.14 -24104.5,-6026.14l-31673.28 0c-6893.87,0 -12437.92,626.74 -16728.55,1831.95 -3904.93,1108.82 -6845.7,2747.9 -8870.47,5013.75 -1783.73,1928.38 -2940.76,4387.02 -3567.46,7472.39 -289.26,1349.86 -433.87,2844.33 -530.3,4483.45 -48.22,1301.64 -96.43,2940.76 -96.43,4917.32 0,4965.53 385.69,8677.64 1108.82,11136.28 964.17,2988.94 2651.51,5254.79 5110.14,6845.7 4579.84,2844.33 15137.64,4290.58 31769.71,4290.58 14703.73,0 23670.64,337.48 26852.44,1012.38 3326.41,674.91 5013.75,2603.29 5013.75,5833.31 0,2603.29 -1012.38,4338.8 -3085.37,5206.58 -1349.86,674.91 -3567.46,1012.38 -6652.83,1012.38l-27768.44 0c-3663.85,0 -6122.48,-433.87 -7375.95,-1349.86 -1590.9,-1108.82 -2362.25,-3471.07 -2458.68,-7134.96l-22658.21 0 0 5110.14c0,7761.65 2265.81,13064.66 6749.26,15908.99 4097.76,2651.51 11473.75,4001.37 22176.17,4001.37l27479.09 0c15330.47,0 25213.32,-1349.86 29744.94,-4097.76 4772.71,-2940.76 7134.96,-9304.33 7134.96,-19090.75 -96.43,-10413.15 -2892.55,-17065.98 -8581.21,-19862.09l0 -0.04zm43195.3 23284.94l0 -55151.09 -22754.68 0 0 51583.63c0,5495.84 626.74,9207.94 1831.95,11136.28 1831.95,4097.76 4917.32,7231.35 9207.94,9497.16 2506.85,1301.64 6218.96,1928.38 11039.84,1928.38l51487.24 0 0 -18994.36 -50812.29 0z"/>
   <path class="fil1" d="M174468.39 33216.01l-80894.71 80894.71c4097.76,4097.76 8870.47,7617.04 14077.04,10316.72l82774.83 -60646.93c-2072.99,-11811.19 -7809.86,-22417.21 -15957.21,-30564.5l0.04 0z"/>
   <path class="fil0" d="M134358.46 16487.46l-54717.18 76363.09c2072.99,5833.31 5061.92,11232.71 8822.25,16005.38l79351.98 -80991.15c-9352.55,-7038.52 -20922.7,-11232.71 -33457.05,-11377.32zm-18705.06 111411c5785.09,1976.55 11955.79,3037.15 18415.8,3037.15 31528.72,0 57224.12,-25647.14 57224.12,-57175.86l-75639.92 54138.71z"/>
   <path class="fil0" d="M133972.81 0c-40640.14,0 -73663.32,33023.19 -73663.32,73663.37 0,40640.18 33023.14,73663.32 73663.32,73663.32 40640.23,0 73663.37,-33023.14 73663.37,-73663.32 0,-40640.18 -33023.19,-73663.37 -73663.37,-73663.37zm65660.68 73711.58c0,36204.99 -29455.73,65612.42 -65612.46,65612.42 -36204.95,0 -65612.42,-29455.69 -65612.42,-65612.42 0,-36204.99 29455.73,-65612.46 65612.42,-65612.46 36156.77,-48.22 65612.46,29407.51 65612.46,65612.46z"/>
  </g>
 </g>
</svg>
