<?xml version="1.0" encoding="UTF-8"?>
<!DOCTYPE svg PUBLIC "-//W3C//DTD SVG 1.1//EN" "http://www.w3.org/Graphics/SVG/1.1/DTD/svg11.dtd">
<!-- Creator: CorelDRAW 2021 (64-Bit) -->
<svg xmlns="http://www.w3.org/2000/svg" xml:space="preserve" width="43.472mm" height="43.472mm" version="1.1" style="shape-rendering:geometricPrecision; text-rendering:geometricPrecision; image-rendering:optimizeQuality; fill-rule:evenodd; clip-rule:evenodd"
viewBox="0 0 242.37 242.37"
 xmlns:xlink="http://www.w3.org/1999/xlink"
 xmlns:xodm="http://www.corel.com/coreldraw/odm/2003">
 <defs>
  <style type="text/css">
   <![CDATA[
    .fil0 {fill:none}
    .fil1 {fill:white}
   ]]>
  </style>
 </defs>
 <g id="Layer_x0020_1">
  <metadata id="CorelCorpID_0Corel-Layer"/>
  <rect class="fil0" width="242.37" height="242.37"/>
  <path class="fil1" d="M29.2 121.72c0,47.35 33.21,86.72 76.65,94.7l0 -68.78 -22.99 0 0 -26.45 22.99 0 0 -21.17c0,-23.81 14.82,-37.03 35.77,-37.03 6.64,0 13.8,1.05 20.44,2.11l0 24.34 -11.75 0c-11.24,0 -13.8,5.82 -13.8,13.23l0 18.52 24.53 0 -4.08 26.45 -20.44 0 0 68.78c43.44,-7.98 76.65,-47.35 76.65,-94.7 0,-52.67 -41.39,-95.76 -91.98,-95.76 -50.59,0 -91.98,43.09 -91.98,95.76z"/>
 </g>
</svg>
