<?xml version="1.0" encoding="UTF-8"?>
<!DOCTYPE svg PUBLIC "-//W3C//DTD SVG 1.1//EN" "http://www.w3.org/Graphics/SVG/1.1/DTD/svg11.dtd">
<!-- Creator: CorelDRAW 2021 (64-Bit) -->
<svg xmlns="http://www.w3.org/2000/svg" xml:space="preserve" width="43.472mm" height="43.472mm" version="1.1" style="shape-rendering:geometricPrecision; text-rendering:geometricPrecision; image-rendering:optimizeQuality; fill-rule:evenodd; clip-rule:evenodd"
viewBox="0 0 284.4 284.4"
 xmlns:xlink="http://www.w3.org/1999/xlink"
 xmlns:xodm="http://www.corel.com/coreldraw/odm/2003">
 <defs>
  <style type="text/css">
   <![CDATA[
    .fil0 {fill:none}
    .fil1 {fill:white}
   ]]>
  </style>
 </defs>
 <g id="Layer_x0020_1">
  <metadata id="CorelCorpID_0Corel-Layer"/>
  <rect class="fil0" width="284.4" height="284.4"/>
  <path class="fil1" d="M99.11 34.65c11.15,-0.53 14.7,-0.65 43.09,-0.65 28.39,0 31.94,0.13 43.08,0.65 11.14,0.52 18.74,2.36 25.39,5.03 6.96,2.73 13.28,6.98 18.51,12.49 5.32,5.4 9.43,11.93 12.05,19.15 2.59,6.89 4.35,14.76 4.87,26.26 0.51,11.56 0.62,15.24 0.62,44.62 0,29.39 -0.12,33.07 -0.62,44.61 -0.51,11.51 -2.28,19.38 -4.87,26.26 -2.62,7.22 -6.73,13.76 -12.05,19.17 -5.22,5.51 -11.54,9.76 -18.51,12.47 -6.65,2.68 -14.25,4.51 -25.37,5.04 -11.16,0.53 -14.71,0.65 -43.1,0.65 -28.39,0 -31.94,-0.13 -43.09,-0.65 -11.11,-0.52 -18.72,-2.36 -25.37,-5.04 -6.97,-2.71 -13.29,-6.97 -18.52,-12.47 -5.32,-5.4 -9.43,-11.94 -12.06,-19.16 -2.57,-6.89 -4.34,-14.75 -4.85,-26.26 -0.51,-11.56 -0.62,-15.24 -0.62,-44.62 0,-29.39 0.12,-33.07 0.62,-44.6 0.51,-11.53 2.28,-19.39 4.85,-26.28 2.63,-7.22 6.75,-13.76 12.07,-19.16 5.21,-5.5 11.53,-9.76 18.5,-12.48 6.65,-2.66 14.25,-4.5 25.37,-5.03l0.01 0zm85.32 19.48c-11.02,-0.52 -14.33,-0.63 -42.23,-0.63 -27.9,0 -31.21,0.11 -42.23,0.63 -10.19,0.48 -15.72,2.24 -19.41,3.73 -4.87,1.97 -8.36,4.3 -12.02,8.09 -3.47,3.49 -6.14,7.74 -7.81,12.44 -1.44,3.82 -3.13,9.54 -3.6,20.09 -0.5,11.41 -0.61,14.83 -0.61,43.72 0,28.89 0.1,32.31 0.61,43.72 0.47,10.55 2.17,16.28 3.6,20.09 1.67,4.69 4.34,8.95 7.81,12.44 3.37,3.59 7.49,6.36 12.02,8.09 3.68,1.48 9.21,3.25 19.41,3.73 11.02,0.52 14.32,0.63 42.23,0.63 27.91,0 31.21,-0.11 42.23,-0.63 10.19,-0.48 15.72,-2.24 19.41,-3.73 4.87,-1.97 8.36,-4.3 12.02,-8.09 3.47,-3.49 6.14,-7.75 7.81,-12.44 1.44,-3.82 3.13,-9.54 3.6,-20.09 0.5,-11.41 0.61,-14.83 0.61,-43.72 0,-28.89 -0.1,-32.31 -0.61,-43.72 -0.47,-10.55 -2.17,-16.28 -3.6,-20.09 -1.9,-5.05 -4.15,-8.66 -7.81,-12.44 -3.37,-3.59 -7.48,-6.35 -12.02,-8.09 -3.68,-1.48 -9.21,-3.25 -19.41,-3.73zm-55.58 121.43c7.45,3.21 15.75,3.64 23.48,1.22 7.73,-2.42 14.41,-7.54 18.89,-14.49 4.49,-6.95 6.5,-15.3 5.7,-23.62 -0.8,-8.32 -4.36,-16.09 -10.08,-21.99 -3.65,-3.77 -8.05,-6.66 -12.91,-8.46 -4.85,-1.8 -10.03,-2.46 -15.16,-1.93 -5.13,0.52 -10.08,2.22 -14.51,4.96 -4.42,2.74 -8.2,6.47 -11.06,10.91 -2.86,4.44 -4.74,9.48 -5.5,14.76 -0.76,5.28 -0.37,10.66 1.12,15.77 1.5,5.11 4.07,9.81 7.53,13.76 3.46,3.96 7.73,7.07 12.49,9.11zm-24.64 -72.68c4.99,-5.17 10.91,-9.26 17.43,-12.06 6.52,-2.79 13.5,-4.23 20.56,-4.23 7.06,0 14.04,1.44 20.56,4.23 6.52,2.8 12.44,6.89 17.43,12.06 4.99,5.16 8.95,11.29 11.64,18.04 2.7,6.75 4.09,13.98 4.09,21.28 0,7.3 -1.39,14.54 -4.09,21.28 -2.7,6.75 -6.66,12.88 -11.64,18.04 -10.07,10.43 -23.74,16.29 -37.98,16.29 -14.25,0 -27.91,-5.86 -37.98,-16.29 -10.08,-10.43 -15.74,-24.57 -15.74,-39.32 0,-14.75 5.66,-28.9 15.74,-39.32zm103.61 -8.01c1.24,-1.21 2.23,-2.66 2.91,-4.27 0.68,-1.61 1.05,-3.35 1.07,-5.11 0.02,-1.76 -0.29,-3.5 -0.93,-5.13 -0.64,-1.63 -1.59,-3.11 -2.79,-4.36 -1.2,-1.24 -2.64,-2.23 -4.21,-2.89 -1.57,-0.66 -3.26,-0.99 -4.96,-0.96 -1.7,0.02 -3.38,0.4 -4.93,1.11 -1.55,0.71 -2.96,1.73 -4.12,3.01 -2.27,2.49 -3.51,5.79 -3.46,9.21 0.05,3.42 1.38,6.69 3.72,9.11 2.33,2.42 5.49,3.8 8.8,3.85 3.3,0.05 6.5,-1.24 8.9,-3.58z"/>
 </g>
</svg>
