<?xml version="1.0" encoding="UTF-8"?>
<!DOCTYPE svg PUBLIC "-//W3C//DTD SVG 1.1//EN" "http://www.w3.org/Graphics/SVG/1.1/DTD/svg11.dtd">
<!-- Creator: CorelDRAW 2021 (64-Bit) -->
<svg xmlns="http://www.w3.org/2000/svg" xml:space="preserve" width="129.747mm" height="89.5874mm" version="1.1" style="shape-rendering:geometricPrecision; text-rendering:geometricPrecision; image-rendering:optimizeQuality; fill-rule:evenodd; clip-rule:evenodd"
viewBox="0 0 1229.37 848.85"
 xmlns:xlink="http://www.w3.org/1999/xlink"
 xmlns:xodm="http://www.corel.com/coreldraw/odm/2003">
 <defs>
  <style type="text/css">
   <![CDATA[
    .fil0 {fill:none}
    .fil5 {fill:black}
    .fil4 {fill:#009DFF}
    .fil3 {fill:#1A1A1A}
    .fil2 {fill:#FFC200}
    .fil1 {fill:white}
   ]]>
  </style>
 </defs>
 <g id="Layer_x0020_1">
  <metadata id="CorelCorpID_0Corel-Layer"/>
  <rect class="fil0" x="-0" y="-0" width="1229.37" height="848.85"/>
  <g id="_2463587329472">
   <g>
    <path class="fil1" d="M1194.91 440.38c1.15,-0.41 2.35,-0.74 3.57,-0.97l0 -4.9c0,-5.34 3.88,-9.79 9.17,-10.51l9.67 -1.33c3.15,-0.43 6.02,0.43 8.42,2.51 2.39,2.09 3.64,4.82 3.64,8l0 45.39c0,5.27 -3.76,9.67 -8.97,10.48l-8.47 1.33c-1.7,0.27 -3.36,0.11 -4.9,-0.38 -1.7,0.34 -3.42,0.51 -5.15,0.51 -4.36,0 -8.46,-1.03 -12.01,-3.17 -1.7,1.16 -3.75,1.84 -5.96,1.84l-9.8 0c-1.79,0 -3.48,-0.45 -4.96,-1.23 -2.34,1.31 -4.98,1.99 -7.75,1.99 -4.29,0 -8.23,-1.7 -11.22,-4.76 -0.23,-0.24 -0.46,-0.48 -0.67,-0.73 -1.93,2.68 -5.07,4.43 -8.62,4.43l-28.04 0c-4.37,0 -8.14,-2.66 -9.76,-6.45 -1.62,3.79 -5.39,6.45 -9.76,6.45l-28.04 0c-0.9,0 -1.78,-0.11 -2.62,-0.33 -0.84,0.22 -1.72,0.33 -2.62,0.33l-28.04 0c-0.68,0 -1.35,-0.06 -1.99,-0.19 -0.65,0.12 -1.31,0.19 -1.99,0.19l-27.73 0c-2.16,0 -4.17,-0.65 -5.85,-1.76 -4.41,2.04 -9.26,3.16 -14.6,3.16 -10.55,0 -18.9,-2.41 -24.83,-7.33 -7.36,4.9 -16.87,7.33 -27.04,7.33 -12.62,0 -27.85,-4.29 -39.61,-9.77 -10.84,6.41 -21.91,9.77 -35.18,9.77 -17.72,0 -31.57,-6.37 -40.02,-17.74 -11.34,10.9 -28.02,16.35 -47.6,16.35l-36.87 0c-1.12,0 -2.19,-0.17 -3.21,-0.5 -1.01,0.32 -2.09,0.5 -3.21,0.5l-28.04 0c-4.37,0 -8.13,-2.66 -9.76,-6.45 -1.62,3.79 -5.39,6.45 -9.76,6.45l-28.04 0c-0.98,0 -1.93,-0.13 -2.82,-0.38 -0.9,0.25 -1.85,0.38 -2.82,0.38l-27.73 0c-2.16,0 -4.17,-0.65 -5.85,-1.76 -4.41,2.04 -9.26,3.16 -14.6,3.16 -6.55,0 -12.26,-0.93 -17.07,-2.82 -1.56,0.9 -3.37,1.42 -5.3,1.42l-28.04 0c-3.51,0 -6.63,-1.72 -8.56,-4.36 -7.37,3.76 -16.21,5.75 -26.21,5.75 -8.16,0 -15.55,-1.33 -22,-3.86 -1.84,1.54 -4.21,2.47 -6.79,2.47l-30.67 0c-3.67,0 -6.83,-1.7 -8.86,-4.77l-2.21 -3.34c-1.13,4.64 -5.33,8.11 -10.31,8.11l-28.04 0c-4.1,0 -7.66,-2.34 -9.43,-5.75 -9.35,4.7 -19.08,7.15 -30.4,7.15 -15.57,0 -28.14,-4.91 -36.7,-13.81 -8.64,9.18 -21.93,13.81 -36.95,13.81 -16.97,0 -35.11,-5.58 -49.84,-13.93 -4.75,-2.69 -6.68,-8.48 -4.49,-13.48l9.61 -21.99c0.55,-1.26 1.28,-2.34 2.17,-3.25 -5.78,-6.08 -9.1,-14.18 -9.1,-25.49 0,-27.82 19.57,-40.51 45.62,-40.51 16.24,0 29.86,2.51 45.37,7.48 2.8,0.9 4.89,2.68 6.23,5.31 1.33,2.62 1.53,5.36 0.6,8.16l-2.1 6.3c7.82,-5.2 17.79,-8.03 29.59,-8.03 11.73,0 21.63,3.12 29.22,8.76l0 -20.92c0,-5.85 4.77,-10.61 10.61,-10.61l28.04 0c5.84,0 10.61,4.77 10.61,10.61l0 19.63 2.19 -2.48c2.09,-2.37 4.8,-3.59 7.96,-3.59l30.21 0c2.75,0 5.27,1.06 7.16,2.79 6.59,-2.74 14.21,-4.18 22.71,-4.18 9.13,0 17.25,1.66 24.16,4.81l0 -16.97c0,-5.85 4.77,-10.61 10.61,-10.61l28.04 0c5.84,0 10.61,4.77 10.61,10.61l0 16.26c9.19,-2.3 18.48,-4.1 28.02,-4.1 11.12,0 20.13,2.13 26.95,6.47l0 -18.63c0,-5.85 4.77,-10.61 10.61,-10.61l28.04 0c5.85,0 10.61,4.77 10.61,10.61l0 15.39c4.62,-1.94 9.58,-3.08 15.1,-3.08 7.29,0 13.09,1.44 17.64,4.03l0 -11.24c0,-5.85 4.77,-10.61 10.61,-10.61l36.87 0c25.23,0 45.65,9.04 56.01,27.12 8.09,-6.12 18.77,-9.47 31.61,-9.47 16.1,0 28.75,5.87 36.72,16.09 6.59,-10.35 18.77,-16.09 32.81,-16.09 13.83,0 25.29,1.74 38.66,5.51 0.2,0.06 0.4,0.12 0.6,0.18 11.2,-3 22.48,-5.69 34.15,-5.69 11.07,0 20.06,2.11 26.87,6.43 0.36,-0.57 0.77,-1.11 1.22,-1.61 -2.94,-3.96 -4.67,-8.93 -4.67,-14.65 0,-15.11 11.84,-25.02 26.41,-25.02 14.57,0 26.41,9.91 26.41,25.02 0,4.18 -0.92,7.95 -2.56,11.23l23.53 0c2.94,0 5.61,1.21 7.53,3.15 5.54,-2.71 11.47,-4.39 18.18,-4.39 25.05,0 32.45,17 32.45,39.27l0 31.46c2.8,-2.28 6.23,-3.49 9.9,-3.49 0.71,0 1.41,0.04 2.1,0.13l0 -7.6c0,-1.46 0.29,-2.85 0.82,-4.12 -0.83,-1.94 -1.26,-4.05 -1.26,-6.25 0,-4.28 1.62,-8.24 4.65,-11.26 3.03,-3.03 6.98,-4.66 11.26,-4.66 4.29,0 8.25,1.6 11.28,4.64 3.03,3.03 4.63,6.99 4.64,11.28zm-426.61 2.54l0 0c6.91,-0.62 10.22,-3.9 10.22,-11.89 0,-7.98 -3.3,-11.39 -10.22,-12.04l0 23.93zm-662.48 -133.47l0 0c-2.62,-1.06 -5.4,-1.85 -8.3,-2.37 -0.35,-0.06 -0.65,-0.1 -1.01,-0.13 -8.21,-0.69 -16.22,2.89 -18.89,11.16 -0.98,3.05 -1.01,6.3 -0.2,9.32 -12.34,5.3 -23.29,13.23 -32.26,23.03l-20.43 0c-5.84,0 -10.61,4.77 -10.61,10.61 0,8.69 2.83,14.86 7.65,18.89 -4.76,8.4 -7.47,18.1 -7.47,28.41 0,9.67 2.39,18.8 6.61,26.83 5.18,28.2 22.32,52.63 46.19,66.67 -1.85,1.23 -3.45,2.82 -4.68,4.67l-32.82 0c-0.76,0 -1.5,0.08 -2.21,0.23 -0.81,-0.15 -1.64,-0.23 -2.49,-0.23l-11.47 0c-7.41,0 -13.43,6.02 -13.43,13.43l0 10.99c0,7.4 6.02,13.43 13.43,13.43l11.47 0c0.85,0 1.69,-0.08 2.49,-0.23 0.71,0.15 1.45,0.23 2.21,0.23l166.6 0c1.5,0 2.93,-0.31 4.22,-0.88 1.41,-0 2.86,-0.25 4.3,-0.77l16.62 -6.03c10.98,-3.98 11.01,-18.49 0,-22.49l-16.62 -6.03c-1.5,-0.54 -3.01,-0.82 -4.47,-0.84 -1.25,-0.52 -2.62,-0.81 -4.05,-0.81l-32.45 0c-1.12,-1.69 -2.55,-3.16 -4.2,-4.34 23.18,-13.41 40.11,-36.59 46.06,-63.54 5.44,-8.82 8.59,-19.2 8.59,-30.29 0,-10.31 -2.72,-20.01 -7.47,-28.41 4.82,-4.03 7.65,-10.19 7.65,-18.88 0,-5.84 -4.77,-10.61 -10.61,-10.61l-21.71 0c-13.09,-14.3 -30.37,-24.6 -50.05,-28.61 -0.08,-1.37 -0.23,-2.68 -0.45,-3.89 -1.73,-9.11 -9.08,-15.5 -18.69,-12.92 -2.91,0.78 -5.29,2.36 -7.06,4.41z"/>
    <g>
     <g>
      <g>
       <g>
        <g>
         <path class="fil2" d="M113.61 503.91c46.11,0 83.73,-38.92 83.73,-86.64 0,-47.72 -37.61,-86.65 -83.73,-86.65 -46.11,0 -83.73,38.92 -83.73,86.65 0,47.72 37.61,86.64 83.73,86.64z"/>
         <polygon class="fil3" points="114.24,430.05 99.65,437.51 114.24,464.05 128.85,437.51 "/>
         <path class="fil2" d="M72.2 455.67c26.05,0 47.3,-21.25 47.3,-47.3 0,-26.05 -21.25,-47.3 -47.3,-47.3 -26.05,0 -47.3,21.25 -47.3,47.3 0,26.05 21.25,47.3 47.3,47.3z"/>
         <path class="fil1" d="M72.2 445.16c20.27,0 36.8,-16.53 36.8,-36.79 0,-20.27 -16.53,-36.8 -36.8,-36.8 -20.27,0 -36.8,16.53 -36.8,36.8 0,20.27 16.53,36.79 36.8,36.79z"/>
         <polygon class="fil2" points="45.65,371.57 72.2,371.57 72.2,361.07 45.65,361.07 "/>
         <path class="fil2" d="M50.15 361.07l-25.42 0c0,10.58 5.68,14.36 17.69,14.36l7.73 0 0 -14.36z"/>
         <path class="fil3" d="M72.2 420.93c9.91,0 17.99,-8.08 17.99,-17.98 0,-9.91 -8.08,-17.99 -17.99,-17.99 -9.9,0 -17.98,8.08 -17.98,17.99 0,9.91 8.08,17.98 17.98,17.98z"/>
         <path class="fil1" d="M69.28 400.59c3.12,0 5.66,-2.54 5.66,-5.66 0,-3.12 -2.54,-5.66 -5.66,-5.66 -3.12,0 -5.66,2.54 -5.66,5.66 0,3.12 2.54,5.66 5.66,5.66z"/>
         <path class="fil2" d="M156.3 455.67c26.05,0 47.3,-21.25 47.3,-47.3 0,-26.05 -21.25,-47.3 -47.3,-47.3 -26.05,0 -47.3,21.25 -47.3,47.3 0,26.05 21.25,47.3 47.3,47.3z"/>
         <path class="fil1" d="M156.3 445.16c20.27,0 36.79,-16.53 36.79,-36.79 0,-20.27 -16.53,-36.8 -36.79,-36.8 -20.27,0 -36.8,16.53 -36.8,36.8 0,20.27 16.53,36.79 36.8,36.79z"/>
         <polygon class="fil2" points="156.29,371.57 182.85,371.57 182.85,361.07 156.29,361.07 "/>
         <path class="fil2" d="M178.34 361.07l25.42 0c0,10.58 -5.69,14.36 -17.69,14.36l-7.73 0 0 -14.36z"/>
         <path class="fil3" d="M156.29 420.93c9.91,0 17.99,-8.08 17.99,-17.98 0,-9.91 -8.08,-17.99 -17.99,-17.99 -9.9,0 -17.99,8.08 -17.99,17.99 0,9.91 8.08,17.98 17.99,17.98z"/>
         <path class="fil1" d="M153.37 400.59c3.12,0 5.66,-2.54 5.66,-5.66 0,-3.12 -2.54,-5.66 -5.66,-5.66 -3.12,0 -5.66,2.54 -5.66,5.66 0,3.12 2.54,5.66 5.66,5.66z"/>
         <polygon class="fil3" points="29.6,533.77 196.2,533.77 196.2,517.16 29.6,517.16 "/>
         <path class="fil3" d="M217.72 524.2l-16.62 -6.03c-1.15,-0.42 -2.79,-0.4 -2.79,1.8l0 10.69c0,1.86 1.7,2.5 2.79,2.1l16.62 -6.03c1.66,-0.6 1.72,-1.91 0,-2.54z"/>
         <path class="fil3" d="M24.89 517.16l-11.47 0c-1.55,0 -2.82,1.27 -2.82,2.82l0 10.99c0,1.55 1.27,2.81 2.82,2.81l11.47 0c1.55,0 2.82,-1.26 2.82,-2.81l0 -10.99c0,-1.55 -1.27,-2.82 -2.82,-2.82z"/>
         <g>
          <path class="fil3" d="M76.21 509.74c3.27,0 5.95,2.68 5.95,5.95l0 4.02c0,3.27 -2.68,5.95 -5.95,5.95 -3.27,0 -5.95,-2.68 -5.95,-5.95l0 -4.02c0,-3.27 2.68,-5.95 5.95,-5.95z"/>
          <path class="fil3" d="M89.72 509.74l0 0c3.27,0 5.95,2.68 5.95,5.95l0 4.02c0,3.27 -2.68,5.95 -5.95,5.95l-0 0c-3.27,0 -5.95,-2.68 -5.95,-5.95l0 -4.02c0,-3.27 2.68,-5.95 5.95,-5.95z"/>
          <path class="fil3" d="M103.15 509.74l0 0c3.27,0 5.95,2.68 5.95,5.95l0 4.02c0,3.27 -2.68,5.95 -5.95,5.95l-0 0c-3.27,0 -5.95,-2.68 -5.95,-5.95l0 -4.02c0,-3.27 2.68,-5.95 5.95,-5.95z"/>
          <path class="fil3" d="M123.01 509.74l0 0c3.27,0 5.95,2.68 5.95,5.95l0 4.02c0,3.27 -2.68,5.95 -5.95,5.95l-0 0c-3.27,0 -5.95,-2.68 -5.95,-5.95l0 -4.02c0,-3.27 2.68,-5.95 5.95,-5.95z"/>
          <path class="fil3" d="M136.52 509.74l0 0c3.27,0 5.95,2.68 5.95,5.95l0 4.02c0,3.27 -2.68,5.95 -5.95,5.95l-0 0c-3.27,0 -5.95,-2.68 -5.95,-5.95l0 -4.02c0,-3.27 2.68,-5.95 5.95,-5.95z"/>
          <path class="fil3" d="M149.95 509.74l0 0c3.27,0 5.95,2.68 5.95,5.95l0 4.02c0,3.27 -2.68,5.95 -5.95,5.95l-0 0c-3.27,0 -5.95,-2.68 -5.95,-5.95l0 -4.02c0,-3.27 2.68,-5.95 5.95,-5.95z"/>
         </g>
         <path class="fil2" d="M114.24 330.63c-2.78,-5.79 -8.39,-11.26 -18.62,-13.12 -11.6,-0.98 -9.29,11.88 -2.71,11.06 5.86,-0.17 11.27,1.03 15.42,2.78 1.72,1.48 3.01,2.58 4.73,4.06 1.06,-1.6 0.12,-3.19 1.19,-4.79z"/>
         <path class="fil2" d="M116.87 330.69c-0.59,-3.54 -1.54,-6.19 -3.34,-9.53 -1.42,-2.39 -0.3,-5.23 2.08,-5.87 3.36,-0.9 4.92,1.46 5.52,4.65 0.73,3.84 0.09,8.89 -0.45,10.98 -0.49,1.4 -0.98,2.8 -1.46,4.2 -0.78,-1.48 -1.57,-2.96 -2.35,-4.44z"/>
        </g>
        <g>
         <path class="fil3" d="M321.47 389.21c-15.95,-5.11 -27.73,-6.97 -42.13,-6.97 -21.84,0 -35.01,9.45 -35.01,29.89 0,16.26 8.37,23.08 26.02,28.97 15.65,5.11 20.45,5.89 20.45,9.91 0,2.94 -1.7,4.8 -6.82,4.8 -7.44,0 -19.83,-3.56 -33.61,-10.69l-9.61 21.99c13.94,7.9 30.36,12.55 44.61,12.55 22.31,0 36.71,-11.15 36.71,-31.6 0,-18.28 -11.62,-23.54 -25.56,-28.5 -15.34,-5.42 -20.91,-5.58 -20.91,-10.07 0,-2.63 1.55,-4.18 7.28,-4.18 7.43,-0.15 16.58,1.39 31.29,5.73l7.28 -21.84z"/>
         <path class="fil3" d="M386.75 451.63c-9.6,4.49 -16.26,6.5 -26.49,6.5 -7.59,0 -11.46,-2.94 -12.85,-10.07l46.63 0c0.46,-4.33 0.62,-6.97 0.62,-10.38 0,-23.39 -13.79,-36.25 -35.63,-36.25 -24.32,0 -38.72,13.94 -38.72,39.65 0,25.25 14.87,38.57 38.72,38.57 12.86,0 23.54,-3.56 35.63,-12.08l-7.9 -15.95zm-39.5 -18.43l0 0c1.24,-8.52 5.42,-12.55 11.77,-12.55 7.12,0 11,4.34 11.31,12.55l-23.08 0z"/>
         <polygon class="fil3" points="426.9,378.68 398.86,378.68 398.86,478.27 426.9,478.27 426.9,463.56 433.56,455.97 448.27,478.27 478.94,478.27 478.94,475.95 451.37,435.52 477.86,405.01 477.86,402.84 447.65,402.84 426.9,426.38 "/>
         <path class="fil3" d="M507.73 401.45c-24.94,0 -39.65,14.25 -39.65,39.5 0,24.63 14.71,38.72 39.65,38.72 24.94,0 39.65,-14.1 39.65,-38.72 0,-25.25 -14.72,-39.5 -39.65,-39.5zm0 56.23l0 0c-7.75,0 -12.24,-4.18 -12.24,-16.73 0,-13.17 4.65,-17.5 12.24,-17.5 7.59,0 12.24,4.33 12.24,17.5 0,12.55 -4.65,16.73 -12.24,16.73z"/>
         <polygon class="fil3" points="570.53,478.27 570.53,378.68 542.5,378.68 542.5,478.27 "/>
         <path class="fil3" d="M579.88 425.92c10.54,-2.17 18.59,-3.25 24.01,-3.25 7.59,0 9.45,3.25 9.45,9.76l-13.17 0c-21.22,0 -31.91,7.44 -31.91,23.39 0,18.43 8.98,23.85 24.63,23.85 8.21,0 14.71,-3.72 20.44,-10.22l0 8.83 27.72 0 0 -45.85c0,-21.84 -9.45,-30.98 -31.91,-30.98 -7.59,0 -15.18,0.93 -33.45,5.89l4.18 18.59zm33.46 19.67l0 0 0 9.45c-2.94,2.48 -6.5,4.49 -11,4.49 -4.8,0 -8.06,-2.79 -8.06,-7.28 0,-4.96 3.56,-6.66 9.76,-6.66l9.29 0z"/>
         <path class="fil3" d="M674.75 378.68l-28.04 0 0 99.59 28.04 0 0 -42.59c3.72,-4.18 7.74,-6.97 12.55,-6.97 5.73,0 6.97,2.48 6.97,10.38l0 39.19 28.04 0 0 -48.02c0,-20.45 -6.04,-28.66 -21.84,-28.66 -8.52,0 -15.8,3.56 -25.71,12.08l0 -35.01z"/>
        </g>
        <g>
         <path class="fil4" d="M728.72 383.79l0 94.48 36.87 0c33.77,0 52.82,-17.04 52.82,-47.24 0,-30.2 -19.05,-47.24 -52.82,-47.24l-36.87 0zm28.97 69.86l0 0 0 -45.38 7.9 0c15.02,0 23.54,8.21 23.54,22.77 0,14.56 -8.52,22.61 -23.54,22.61l-7.9 0z"/>
         <path class="fil4" d="M880.94 451.63c-9.6,4.49 -16.26,6.5 -26.49,6.5 -7.59,0 -11.46,-2.94 -12.86,-10.07l46.62 0c0.47,-4.33 0.62,-6.97 0.62,-10.38 0,-23.39 -13.79,-36.25 -35.63,-36.25 -24.32,0 -38.72,13.94 -38.72,39.65 0,25.25 14.87,38.57 38.72,38.57 12.86,0 23.54,-3.56 35.63,-12.08l-7.9 -15.95zm-39.5 -18.43l0 0c1.24,-8.52 5.42,-12.55 11.77,-12.55 7.13,0 11,4.34 11.31,12.55l-23.08 0z"/>
         <path class="fil4" d="M958.52 406.56c-15.95,-4.49 -25.56,-5.11 -35.78,-5.11 -16.72,0 -27.42,9.6 -27.42,24.47 0,13.17 6.2,19.36 20.29,23.7 11.77,3.56 15.64,4.03 15.64,7.13 0,1.86 -1.39,2.79 -5.27,2.79 -5.89,0 -16.57,-3.1 -28.04,-8.36l-6.81 18.9c11.62,5.73 26.33,9.6 36.86,9.6 18.74,0 31.13,-8.98 31.13,-25.56 0,-12.24 -6.04,-18.12 -20.29,-22.3 -13.48,-3.87 -17.19,-3.87 -17.19,-7.43 0,-2.32 2.17,-3.1 4.65,-3.1 4.03,0 12.7,0.93 25.56,4.8l6.66 -19.51z"/>
         <path class="fil4" d="M966.87 425.92c10.53,-2.17 18.59,-3.25 24.01,-3.25 7.59,0 9.45,3.25 9.45,9.76l-13.16 0c-21.22,0 -31.91,7.44 -31.91,23.39 0,18.43 8.98,23.85 24.63,23.85 8.21,0 14.71,-3.72 20.45,-10.22l0 8.83 27.73 0 0 -45.85c0,-21.84 -9.45,-30.98 -31.91,-30.98 -7.59,0 -15.18,0.93 -33.46,5.89l4.18 18.59zm33.46 19.67l0 0 0 9.45c-2.94,2.48 -6.5,4.49 -11,4.49 -4.8,0 -8.05,-2.79 -8.05,-7.28 0,-4.96 3.56,-6.66 9.76,-6.66l9.29 0z"/>
         <path class="fil4" d="M1030.17 381c0,9.45 7.59,14.25 15.8,14.25 8.21,0 15.8,-4.8 15.8,-14.25 0,-9.6 -7.59,-14.41 -15.8,-14.41 -8.21,0 -15.8,4.8 -15.8,14.41zm29.89 97.27l0 0 0 -75.43 -28.04 0 0 75.43 28.04 0z"/>
         <path class="fil4" d="M1093.35 402.84l-28.04 0 0 75.43 28.04 0 0 -43.37c3.72,-4.18 7.74,-6.97 12.55,-6.97 5.58,0 6.97,2.48 6.97,10.38l0 39.96 28.04 0 0 -48.02c0,-20.45 -6.04,-28.66 -21.84,-28.66 -8.52,0 -15.8,3.56 -25.71,11.31l0 -10.07z"/>
        </g>
       </g>
       <path class="fil5" d="M1156.23 474.08c0,-1.47 0.51,-2.7 1.52,-3.72 1,-1.02 2.22,-1.53 3.66,-1.53 1.49,0 2.74,0.51 3.77,1.52 1.02,1 1.54,2.24 1.54,3.73 0,1.44 -0.52,2.68 -1.56,3.71 -1.04,1.02 -2.28,1.54 -3.75,1.54 -1.4,0 -2.61,-0.53 -3.64,-1.57 -1.02,-1.05 -1.54,-2.27 -1.54,-3.68z"/>
       <path class="fil5" d="M1173.68 440.39c0,-1.48 0.51,-2.74 1.55,-3.76 1.02,-1.03 2.28,-1.55 3.76,-1.55 1.51,0 2.76,0.51 3.78,1.53 1.02,1.02 1.53,2.28 1.53,3.78 0,1.49 -0.52,2.75 -1.55,3.8 -1.02,1.04 -2.27,1.57 -3.76,1.57 -1.45,0 -2.69,-0.53 -3.74,-1.59 -1.04,-1.06 -1.57,-2.32 -1.57,-3.78zm10.24 38.18l0 0 -9.8 0 0 -27.82 9.8 -1.33 0 29.14z"/>
       <path class="fil5" d="M1209.09 457.81c-0.58,-0.33 -1.13,-0.57 -1.65,-0.7 -0.53,-0.15 -1.04,-0.22 -1.56,-0.22 -1.83,0 -3.38,0.77 -4.64,2.31 -1.25,1.53 -1.88,3.47 -1.88,5.8 0,2.18 0.55,4 1.65,5.46 1.11,1.45 2.45,2.18 4.04,2.18 0.61,0 1.26,-0.13 1.93,-0.39 0.68,-0.25 1.38,-0.65 2.12,-1.19l0 -13.23zm9.67 -24.63l0 0 0 45.39 -8.47 1.33 -0.37 -2.16c-1.36,0.74 -2.7,1.28 -4.01,1.63 -1.33,0.35 -2.67,0.53 -4.03,0.53 -3.89,0 -6.93,-1.28 -9.11,-3.86 -2.18,-2.57 -3.27,-6.13 -3.27,-10.68 0,-4.77 1.29,-8.6 3.85,-11.49 2.57,-2.88 5.96,-4.32 10.19,-4.32 0.99,0 1.94,0.09 2.84,0.29 0.91,0.19 1.81,0.5 2.72,0.91l0 -16.25 9.67 -1.33z"/>
      </g>
     </g>
    </g>
   </g>
  </g>
 </g>
</svg>
