<?xml version="1.0" encoding="UTF-8"?>
<!DOCTYPE svg PUBLIC "-//W3C//DTD SVG 1.1//EN" "http://www.w3.org/Graphics/SVG/1.1/DTD/svg11.dtd">
<!-- Creator: CorelDRAW X7 -->
<svg xmlns="http://www.w3.org/2000/svg" xml:space="preserve" width="7.68843in" height="6.3407in" version="1.1" style="shape-rendering:geometricPrecision; text-rendering:geometricPrecision; image-rendering:optimizeQuality; fill-rule:evenodd; clip-rule:evenodd"
viewBox="0 0 7798 6431"
 xmlns:xlink="http://www.w3.org/1999/xlink">
 <defs>
  <style type="text/css">
   <![CDATA[
    .fil0 {fill:black}
    .fil1 {fill:#552DC2}
   ]]>
  </style>
 </defs>
 <g id="Layer_x0020_1">
  <metadata id="CorelCorpID_0Corel-Layer"/>
  <g id="_625244872">
   <path class="fil0" d="M5657 0c59,0 107,48 107,107 0,58 -48,106 -107,106 -22,0 -42,-6 -59,-18 -12,12 -28,19 -46,19 -36,0 -66,-30 -66,-66 0,-37 30,-66 66,-66l1 0c12,-47 54,-82 104,-82zm1370 614c136,0 245,109 245,244 0,3 0,5 0,7 7,-1 13,-1 20,-1 202,0 366,164 366,366 0,176 -124,323 -289,358 247,68 429,293 429,561 0,269 -183,495 -430,562 49,55 78,127 78,207 0,173 -140,313 -313,313 -13,0 -26,-1 -38,-2 18,14 30,37 30,62 0,43 -35,78 -78,78 -43,0 -78,-35 -78,-78 0,-38 26,-69 62,-77 -123,-42 -211,-159 -211,-296 0,-67 20,-129 56,-179 -37,-13 -71,-33 -100,-58 -57,68 -143,112 -240,112 -93,0 -177,-41 -235,-106 1,8 1,16 1,24 0,132 -107,239 -239,239 -23,0 -45,-3 -66,-9 3,6 5,13 5,21 0,25 -21,46 -46,46 -25,0 -46,-21 -46,-46 0,-21 14,-38 33,-44 -12,-7 -23,-15 -33,-23 -10,5 -21,8 -33,8 -40,0 -73,-33 -73,-73 0,-9 2,-18 5,-26 -2,0 -3,0 -5,0 -27,0 -53,-4 -77,-12 -2,32 -28,57 -61,57 -33,0 -60,-27 -60,-60 0,-22 13,-42 31,-52 -45,-44 -73,-105 -73,-172 0,-7 1,-14 1,-21 -28,-4 -54,-13 -78,-27 8,26 12,54 12,82 0,149 -120,269 -268,269 -47,0 -92,-12 -130,-33 -8,24 -31,41 -57,41 -34,0 -61,-27 -61,-60 0,-24 14,-44 34,-54 -14,-18 -26,-38 -34,-59 -23,-3 -45,-9 -66,-18 -14,36 -47,62 -86,68 9,10 15,24 15,40 0,33 -27,60 -60,60 -34,0 -61,-27 -61,-60 0,-24 14,-45 34,-55 -32,-19 -53,-54 -53,-94 0,-29 12,-56 31,-76 -17,-2 -33,-9 -45,-19 -7,35 -37,61 -74,61 -41,0 -74,-34 -74,-75 0,-30 17,-55 43,-67 -104,-31 -180,-127 -180,-241 0,-8 0,-15 1,-22 -4,0 -8,0 -11,0 -61,0 -111,-49 -111,-111 0,-61 50,-111 111,-111 41,0 76,22 96,55 44,-38 101,-62 165,-62 47,0 90,13 128,36 0,-3 0,-5 0,-8 0,-61 49,-110 111,-110 3,0 7,0 10,0 -3,-6 -6,-14 -6,-22 0,-23 20,-42 43,-42 21,0 39,16 42,36 11,-7 24,-11 38,-11 2,0 4,0 5,0 -2,-6 -3,-14 -3,-21 0,-35 28,-64 63,-64 35,0 64,29 64,64 0,35 -28,63 -63,63 4,10 7,20 7,31 0,18 -7,35 -19,48 84,9 152,73 169,154 25,-18 54,-32 86,-38 -33,-28 -54,-69 -54,-116 0,-31 9,-60 25,-84 -40,-12 -70,-50 -70,-95 0,-55 44,-100 99,-100 55,0 100,45 100,100 0,9 -1,18 -4,27l2 0c34,0 65,11 90,29 20,-21 45,-38 72,-50 -35,-44 -56,-100 -56,-161 0,-143 116,-259 259,-259 42,0 83,11 118,29 5,-14 13,-26 22,-37 -19,-10 -32,-31 -32,-54 0,-35 28,-63 63,-63 34,0 62,28 62,63 0,6 -1,13 -3,19 47,3 87,35 100,79 20,-9 43,-14 66,-14 40,0 77,14 105,38 15,-32 40,-58 70,-75 -44,-10 -77,-50 -77,-97 0,-55 44,-100 99,-100l1 0c-6,-10 -10,-22 -10,-35 0,-37 29,-66 66,-66 34,0 61,25 65,57 25,-11 53,-18 82,-18 5,0 10,0 14,0 -2,-11 -3,-24 -3,-36 0,-41 13,-78 34,-109 -99,-6 -178,-89 -178,-190 0,-105 85,-190 190,-190 84,0 155,54 180,130 45,-61 116,-100 197,-100zm-787 2386c40,0 72,32 72,72 0,40 -32,73 -72,73 -40,0 -72,-33 -72,-73 0,-40 32,-72 72,-72zm-546 -73c25,0 46,20 46,46 0,25 -21,46 -46,46 -26,0 -46,-21 -46,-46 0,-26 20,-46 46,-46zm-150 -196c17,0 31,13 31,30 0,17 -14,31 -31,31 -16,0 -30,-14 -30,-31 0,-17 14,-30 30,-30zm-1380 -461c28,0 50,23 50,51 0,28 -22,50 -50,50 -28,0 -51,-22 -51,-50 0,-28 23,-51 51,-51zm1917 -1140c21,0 38,17 38,38 0,20 -17,37 -38,37 -21,0 -38,-17 -38,-37 0,-21 17,-38 38,-38z"/>
   <path class="fil0" d="M762 1602c77,0 140,62 141,138 11,-5 25,-9 39,-9 47,0 86,39 86,87 0,47 -39,86 -86,86 -11,0 -22,-2 -31,-6 -2,59 -50,105 -109,105 -61,0 -110,-49 -110,-109 0,-9 2,-18 4,-27 -45,-24 -75,-70 -75,-124 0,-78 63,-141 141,-141zm2567 2466c99,0 179,81 179,180 0,99 -80,179 -179,179 -100,0 -180,-80 -180,-179 0,-99 80,-180 180,-180zm-467 765c62,0 111,49 111,111 0,32 -14,62 -36,82 32,1 58,28 58,61 0,33 -27,60 -61,60 -33,0 -60,-27 -60,-60 0,-13 3,-25 10,-35 -7,2 -14,2 -22,2 -61,0 -110,-49 -110,-110 0,-62 49,-111 110,-111zm-498 436c29,0 52,23 52,52 0,29 -23,52 -52,52 -29,0 -52,-23 -52,-52 0,-29 23,-52 52,-52zm-563 -746c89,0 165,58 191,139 16,-25 44,-42 76,-42 50,0 90,41 90,90 0,50 -40,90 -90,90 -28,0 -54,-13 -70,-33 -11,47 -38,89 -75,117 60,24 103,83 103,152 0,90 -72,163 -162,163 -90,0 -163,-73 -163,-163 0,-46 19,-88 50,-117 -87,-23 -150,-101 -150,-195 0,-111 90,-201 200,-201zm-307 608c50,0 90,41 90,90 0,50 -40,90 -90,90 -49,0 -90,-40 -90,-90 0,-49 41,-90 90,-90zm-447 749c37,0 67,30 67,68 0,37 -30,68 -67,68 -38,0 -68,-31 -68,-68 0,-38 30,-68 68,-68zm-418 64c97,0 176,79 176,177 0,97 -79,176 -176,176 -98,0 -177,-79 -177,-176 0,-98 79,-177 177,-177zm-330 -1011c97,0 176,79 176,176 0,98 -79,177 -176,177 -98,0 -177,-79 -177,-177 0,-97 79,-176 177,-176zm2353 -2467c69,0 124,55 124,123 0,68 -55,123 -124,123 -68,0 -123,-55 -123,-123 0,-68 55,-123 123,-123zm340 -91c29,0 53,24 53,53 0,4 -1,7 -1,10 3,-1 7,-2 11,-2 16,0 29,13 29,29 0,16 -13,29 -29,29 -15,0 -27,-11 -29,-26 -9,8 -21,13 -34,13 -29,0 -53,-24 -53,-53 0,-29 24,-53 53,-53zm221 186c51,0 93,42 93,94 0,51 -42,93 -93,93 -52,0 -94,-42 -94,-93 0,-52 42,-94 94,-94zm-2847 -504c2,0 5,0 8,0 -1,-2 -1,-5 -1,-7 0,-61 49,-110 110,-110 60,0 110,49 110,110 0,14 -3,27 -8,39l1 0c21,0 38,17 38,38 0,20 -16,37 -35,38 32,41 53,91 59,146 9,-8 22,-13 35,-13 29,0 53,23 53,52 0,29 -24,52 -53,52 -14,0 -28,-6 -37,-15 -6,39 -21,75 -41,106 92,8 165,85 165,179 0,10 -1,20 -2,29 24,-49 66,-88 116,-111 -23,-20 -38,-49 -38,-82 0,-60 49,-109 109,-109 31,0 59,13 78,34 33,-57 95,-95 165,-95 105,0 190,85 190,190 0,4 0,8 0,13 18,2 35,7 51,14 -2,-8 -4,-16 -4,-25 0,-42 34,-76 76,-76 43,0 77,34 77,76 0,42 -34,77 -77,77l0 0c33,36 53,84 53,137 0,4 0,8 -1,12 19,-4 39,-7 59,-7 10,0 19,1 29,2 -2,-9 -3,-19 -3,-28 0,-44 20,-82 51,-108 -22,-8 -37,-29 -37,-54 0,-31 25,-57 57,-57 15,0 29,6 39,16 10,-38 45,-66 86,-66 48,0 88,39 88,88 0,36 -22,67 -52,80 26,26 43,61 43,101 0,61 -41,113 -96,131 23,32 39,70 45,111 38,-23 82,-36 130,-36 21,0 41,2 60,7 -2,-7 -3,-13 -3,-20 0,-49 40,-89 88,-89 49,0 89,40 89,89 0,38 -25,71 -59,83 48,46 78,111 78,183 0,33 -7,65 -19,94 29,11 50,38 50,71 0,26 -14,49 -35,63 1,7 2,15 2,23 0,63 -51,114 -114,114 -63,0 -114,-51 -115,-114 -7,1 -14,1 -22,1 -20,0 -40,-2 -59,-7 -3,42 -24,78 -55,101 13,18 21,40 21,64 0,39 -21,73 -51,92 20,27 32,60 32,96 0,88 -71,159 -159,159 -76,0 -139,-53 -155,-124 -38,16 -80,25 -124,25 -55,0 -107,-14 -153,-39 -15,17 -33,31 -53,41 7,23 11,47 11,72 0,129 -105,234 -234,234 -129,0 -234,-105 -234,-234 0,-2 0,-4 0,-6 -32,25 -72,40 -116,40 -44,0 -84,-15 -116,-40 -7,8 -15,16 -23,23 43,27 71,74 71,128 0,83 -67,150 -150,150 -83,0 -150,-67 -150,-150 0,-24 6,-48 16,-68 -112,-22 -196,-121 -196,-239 0,-63 24,-121 64,-164 -46,-55 -73,-125 -73,-202 0,-86 33,-163 88,-220 -119,-45 -204,-161 -204,-296 0,-135 85,-251 204,-296 -74,-51 -122,-137 -122,-233 0,-157 127,-284 284,-284zm356 2102c39,0 71,32 71,72 0,39 -32,72 -71,72 -40,0 -72,-33 -72,-72 0,-40 32,-72 72,-72zm667 -267c24,0 45,20 45,45 0,24 -21,44 -45,44 -25,0 -45,-20 -45,-44 0,-25 20,-45 45,-45zm661 76c25,0 45,20 45,45 0,24 -20,45 -45,45 -25,0 -45,-21 -45,-45 0,-25 20,-45 45,-45zm26 -357c45,0 81,36 81,80 0,45 -36,80 -81,80 -44,0 -80,-35 -80,-80 0,-44 36,-80 80,-80zm306 -216c33,0 59,26 59,59 0,32 -26,59 -59,59 -32,0 -59,-27 -59,-59 0,-33 27,-59 59,-59zm-37 -156c21,0 38,17 38,38 0,21 -17,38 -38,38 -21,0 -38,-17 -38,-38 0,-21 17,-38 38,-38zm160 -340c78,0 142,64 142,142 0,78 -64,142 -142,142 -78,0 -142,-64 -142,-142 0,-78 64,-142 142,-142zm-962 -755c76,0 137,62 137,138 0,76 -61,138 -137,138 -76,0 -138,-62 -138,-138 0,-76 62,-138 138,-138zm-715 -22c21,0 38,17 38,38 0,21 -17,38 -38,38 -21,0 -38,-17 -38,-38 0,-21 17,-38 38,-38zm145 126c29,0 53,23 53,52 0,29 -24,52 -53,52 -29,0 -52,-23 -52,-52 0,-29 23,-52 52,-52zm921 -97c39,0 72,32 72,72 0,40 -33,72 -72,72 -40,0 -73,-32 -73,-72 0,-40 33,-72 73,-72zm-652 -610c47,0 86,39 86,86 0,48 -39,87 -86,87 -48,0 -87,-39 -87,-87 0,-47 39,-86 87,-86z"/>
   <path class="fil0" d="M4085 5514c22,0 40,18 40,40 0,22 -18,40 -40,40 -22,0 -40,-18 -40,-40 0,-22 18,-40 40,-40zm2752 -417c13,0 25,2 37,4 1,-67 56,-122 124,-122 68,0 123,56 123,124 0,21 -6,41 -15,59 20,-6 42,-10 64,-10 118,0 213,95 213,213 0,24 -4,46 -11,67 71,3 127,61 127,132 0,67 -50,122 -114,131 12,29 18,60 18,94 0,138 -112,250 -250,250 -47,0 -91,-13 -129,-36 8,18 12,37 12,58 0,81 -66,147 -147,147 -31,0 -59,-9 -82,-24 0,1 0,3 0,5 0,28 -22,50 -50,50 -28,0 -51,-22 -51,-50 0,-28 23,-51 51,-51 2,0 4,0 6,0 -14,-22 -22,-49 -22,-77 0,-81 66,-148 148,-148 19,0 37,4 54,11 -25,-39 -40,-86 -40,-135 0,-109 70,-202 166,-236 -35,-19 -65,-49 -85,-84 -38,36 -90,58 -147,58 -118,0 -215,-96 -215,-215 0,-18 3,-35 7,-52 -3,0 -6,1 -8,1 -51,0 -92,-42 -92,-92 0,-51 41,-92 92,-92 40,0 75,27 87,64 36,-27 81,-44 129,-44zm-826 123c62,0 113,50 113,112 0,63 -51,113 -113,113 -62,0 -113,-50 -113,-113 0,-62 51,-112 113,-112zm-429 448c33,0 60,27 60,61 0,33 -27,60 -60,60 -34,0 -61,-27 -61,-60 0,-34 27,-61 61,-61zm401 396c22,0 41,8 56,22 21,-35 58,-57 101,-57 66,0 119,53 119,118 0,65 -53,118 -119,118 -43,0 -80,-23 -101,-57 -15,13 -34,21 -56,21 -45,0 -82,-37 -82,-82 0,-46 37,-83 82,-83zm578 -308c41,0 74,33 74,74 0,41 -33,74 -74,74 -41,0 -74,-33 -74,-74 0,-41 33,-74 74,-74zm634 468c57,0 103,46 103,103 0,57 -46,104 -103,104 -57,0 -104,-47 -104,-104 0,-57 47,-103 104,-103zm-3056 -394c51,0 92,41 92,92 0,51 -41,93 -92,93 -51,0 -93,-42 -93,-93 0,-51 42,-92 93,-92zm-298 79c84,0 153,69 153,154 0,84 -69,153 -153,153 -85,0 -154,-69 -154,-153 0,-85 69,-154 154,-154z"/>
   <path class="fil1" d="M6645 621c30,0 58,8 82,23 -14,-4 -29,-6 -44,-6 -95,0 -173,78 -173,173 0,17 3,34 7,50 -16,-25 -26,-54 -26,-86 0,-85 69,-154 154,-154zm-985 -598c38,0 70,25 81,59 -17,-19 -42,-31 -70,-31 -48,0 -87,36 -93,82 -2,-8 -3,-16 -3,-25 0,-47 38,-85 85,-85zm1390 3215c14,0 26,5 36,13l-2 0c-41,0 -76,29 -84,68 -4,-8 -6,-16 -6,-25 0,-31 25,-56 56,-56zm-805 -216c14,0 26,4 36,13l-2 0c-41,0 -76,28 -84,67 -4,-8 -6,-16 -6,-25 0,-30 25,-55 56,-55zm-550 -78c7,0 13,3 18,7l-1 0c-20,0 -37,14 -41,33 -2,-4 -3,-8 -3,-12 0,-15 12,-28 27,-28zm262 -12c7,0 13,3 18,7l-2 0c-20,0 -36,14 -41,32 -1,-3 -2,-7 -2,-11 0,-16 12,-28 27,-28zm-289 -179c10,0 20,4 27,10l-2 0c-31,0 -56,21 -63,50 -3,-5 -4,-11 -4,-18 0,-23 19,-42 42,-42zm1469 -103c55,0 105,16 147,44 -31,-10 -63,-15 -97,-15 -148,0 -272,98 -314,231 2,-144 119,-260 264,-260zm-597 -418c55,0 107,17 149,46 -32,-11 -67,-16 -103,-16 -141,0 -261,87 -310,210 13,-135 126,-240 264,-240zm-474 271c30,0 59,7 85,18 -10,-1 -21,-1 -31,-1 -139,0 -252,112 -252,251 -6,-19 -9,-39 -9,-60 0,-115 92,-208 207,-208zm-259 -144c10,0 20,0 30,2 -122,23 -216,125 -230,250 -3,-15 -5,-31 -5,-47 0,-114 92,-205 205,-205zm-375 -504c13,0 26,3 38,6 -79,9 -140,75 -140,155 0,9 1,17 2,25 -12,-19 -19,-42 -19,-66 0,-66 53,-120 119,-120zm-100 -138c19,0 37,7 50,18l-3 0c-58,0 -105,40 -117,94 -5,-10 -8,-22 -8,-34 0,-43 35,-78 78,-78zm-242 72c10,0 20,4 27,10l-2 0c-31,0 -56,22 -63,51 -3,-6 -4,-12 -4,-19 0,-23 19,-42 42,-42zm-190 128c16,0 32,4 45,12 -2,0 -4,0 -6,0 -59,0 -110,37 -129,89 -1,-3 -1,-7 -1,-10 0,-51 41,-91 91,-91zm-270 563c16,0 30,5 42,15l-3 0c-47,0 -87,33 -97,77 -4,-8 -6,-18 -6,-28 0,-35 29,-64 64,-64zm416 296c10,0 19,4 27,10l-2 0c-31,0 -57,21 -63,50 -3,-5 -4,-12 -4,-18 0,-23 18,-42 42,-42zm-260 -24c10,0 20,3 27,10l-2 0c-30,0 -56,21 -63,50 -2,-5 -4,-12 -4,-18 0,-23 19,-42 42,-42zm-623 -468c11,0 21,5 28,13 -2,-1 -5,-1 -7,-1 -25,0 -46,13 -57,33 -1,-2 -1,-5 -1,-8 0,-20 17,-37 37,-37zm234 -277c16,0 31,4 43,11 -3,0 -5,0 -8,0 -56,0 -104,35 -121,85 -1,-3 -1,-6 -1,-10 0,-48 39,-86 87,-86zm544 351c14,0 28,2 41,6 -85,19 -150,90 -159,178 -8,-16 -12,-35 -12,-54 0,-72 58,-130 130,-130zm296 18c22,0 44,3 65,9 -154,11 -275,139 -275,296l0 1c-10,-25 -15,-53 -15,-81 0,-125 101,-225 225,-225zm-196 -378c39,0 76,13 106,34 -21,-6 -43,-10 -66,-10 -110,0 -203,78 -225,182 0,-7 -1,-13 -1,-20 0,-102 83,-186 186,-186zm-385 6c52,0 100,18 139,48 -31,-12 -64,-19 -99,-19 -134,0 -244,100 -262,229 -2,-11 -3,-22 -3,-33 0,-124 101,-225 225,-225zm1596 -305c14,0 27,2 39,5 -71,5 -131,52 -154,116 7,0 14,-1 21,-1 35,0 68,10 97,26 -15,-3 -30,-4 -45,-4 -131,0 -237,105 -237,236 0,5 1,11 1,16 -10,-23 -15,-49 -15,-75 0,-93 64,-171 149,-192 9,-72 70,-127 144,-127zm950 -48c118,0 227,42 312,110 -78,-38 -165,-60 -258,-60 -254,0 -470,165 -547,393 27,-249 237,-443 493,-443zm-1014 -216c37,0 70,16 93,42 -18,-8 -38,-12 -60,-12 -79,0 -144,59 -155,135 -3,-12 -5,-25 -5,-38 0,-70 57,-127 127,-127zm-393 -12c47,0 91,15 127,41 -27,-9 -55,-14 -85,-14 -130,0 -238,96 -257,221 -1,-10 -2,-21 -2,-31 0,-120 97,-217 217,-217zm724 -260c29,0 56,10 77,26 -14,-4 -29,-6 -44,-6 -77,0 -140,55 -154,127 -2,-7 -3,-15 -3,-23 0,-30 11,-58 28,-79 -2,0 -5,0 -8,0 -52,0 -95,42 -95,94 0,4 0,8 1,11 -7,-12 -11,-26 -11,-40 0,-46 37,-83 83,-83 14,0 27,3 38,10 23,-23 54,-37 88,-37zm-552 110c15,0 28,7 37,18 -7,-3 -15,-4 -23,-4 -30,0 -54,21 -60,48 -1,-4 -2,-9 -2,-15 0,-26 21,-47 48,-47zm480 -188c23,0 42,15 49,36 -11,-11 -26,-19 -43,-19 -28,0 -52,22 -56,50 -1,-5 -2,-10 -2,-15 0,-29 23,-52 52,-52zm833 -193c100,0 189,43 252,111 -62,-40 -136,-64 -215,-64 -178,0 -328,117 -378,278 8,-181 158,-325 341,-325zm-244 -237c42,0 82,12 116,33 -20,-5 -41,-8 -62,-8 -137,0 -248,111 -248,248 0,25 4,48 10,71 -23,-35 -37,-78 -37,-123 0,-122 99,-221 221,-221z"/>
   <path class="fil1" d="M6835 5129c21,0 41,4 60,11 -4,0 -8,-1 -11,-1 -116,0 -212,87 -226,200 -2,-10 -3,-20 -3,-30 0,-99 81,-180 180,-180zm-2690 726c22,0 43,9 57,23 -12,-5 -25,-7 -39,-7 -43,0 -81,26 -98,62 1,-43 37,-78 80,-78zm-301 89c34,0 65,14 87,36 -19,-7 -39,-11 -60,-11 -66,0 -124,39 -149,96 0,-67 55,-121 122,-121zm1738 -261c13,0 26,6 34,15 -7,-3 -15,-4 -23,-4 -26,0 -49,16 -58,38 0,-1 0,-1 0,-2 0,-26 21,-47 47,-47zm431 -445c29,0 55,12 73,32 -15,-6 -32,-9 -49,-9 -55,0 -102,33 -122,81 0,-2 0,-4 0,-6 0,-54 44,-98 98,-98zm-30 845c15,0 29,5 40,13 -7,-1 -14,-2 -21,-2 -39,0 -72,24 -85,57 0,0 0,-1 0,-2 0,-36 30,-66 66,-66zm159 -35c29,0 55,12 73,32 -17,-8 -36,-13 -56,-13 -53,0 -99,34 -116,81l0 -1c0,-54 44,-99 99,-99zm421 -276c17,0 33,8 43,20 -9,-4 -18,-6 -29,-6 -32,0 -61,20 -73,48 0,-1 0,-2 0,-3 0,-32 27,-59 59,-59zm632 472c22,0 42,9 57,24 -11,-4 -22,-5 -33,-5 -49,0 -90,29 -107,71 0,-2 0,-4 0,-7 0,-45 37,-83 83,-83zm-305 -305c35,0 67,15 90,39 -20,-11 -43,-16 -67,-16 -73,0 -134,54 -144,125 -1,-8 -2,-16 -2,-25 0,-68 55,-123 123,-123zm263 -366c62,0 117,26 157,67 -40,-26 -87,-41 -138,-41 -105,0 -194,65 -232,156 17,-103 106,-182 213,-182zm211 -119c32,0 62,14 82,37 -19,-10 -40,-16 -62,-16 -62,0 -114,41 -131,96 -1,-2 -1,-4 -1,-6 0,-61 50,-111 112,-111zm-196 -274c47,0 91,18 124,48 -28,-12 -58,-18 -90,-18 -99,0 -184,61 -219,148 3,-99 85,-178 185,-178zm-171 -173c27,0 51,10 68,27 -13,-4 -26,-6 -41,-6 -57,0 -105,36 -123,87 -1,-4 -1,-7 -1,-11 0,-54 44,-97 97,-97zm-375 90c21,0 40,9 53,23 -9,-3 -19,-4 -30,-4 -44,0 -82,29 -93,70 -1,-5 -2,-11 -2,-16 0,-40 32,-73 72,-73z"/>
   <path class="fil1" d="M760 1625c30,0 56,10 77,28 -16,-6 -33,-9 -50,-9 -68,0 -126,46 -145,108 0,-3 0,-6 0,-9 0,-65 53,-118 118,-118zm287 4270c12,0 24,5 33,12 -36,2 -68,22 -85,51 -1,-3 -1,-7 -1,-10 0,-29 23,-53 53,-53zm-418 76c35,0 67,12 93,33 -16,-4 -33,-6 -50,-6 -84,0 -157,48 -193,118 3,-81 69,-145 150,-145zm2700 -1876c35,0 69,12 95,33 -15,-3 -30,-5 -45,-5 -93,0 -172,58 -203,139 0,-5 -1,-9 -1,-14 0,-85 69,-153 154,-153zm-1261 544c14,0 27,3 37,10 -49,1 -91,33 -107,77 -1,-5 -1,-10 -1,-16 0,-39 32,-71 71,-71zm-197 274c22,0 43,5 62,14 -6,-1 -12,-1 -17,-1 -88,0 -162,59 -184,139 -1,-4 -1,-8 -1,-13 0,-77 63,-139 140,-139zm-377 237c21,0 39,9 52,22 -10,-2 -19,-4 -30,-4 -37,0 -71,18 -93,46 4,-36 35,-64 71,-64zm-1195 -182c24,0 46,6 66,16 -5,0 -11,-1 -17,-1 -84,0 -157,50 -191,121 3,-76 65,-136 142,-136zm1506 -410c26,0 51,6 73,17 -7,-1 -13,-1 -20,-1 -104,0 -191,69 -218,164 0,-5 -1,-10 -1,-15 0,-91 75,-165 166,-165zm-258 -2383c31,0 59,11 80,30 -16,-5 -33,-8 -51,-8 -68,0 -126,42 -149,102 0,-1 0,-2 0,-3 0,-67 54,-121 120,-121zm1445 215c12,0 22,5 30,13 -6,-2 -12,-3 -19,-3 -22,0 -42,13 -52,31 0,-22 19,-41 41,-41zm221 191c16,0 32,5 44,15 -4,-1 -8,-1 -12,-1 -46,0 -86,27 -106,66 0,-2 0,-4 0,-6 0,-41 33,-74 74,-74zm-561 -85c27,0 51,11 68,29 -13,-5 -27,-7 -42,-7 -51,0 -96,29 -119,71 0,-52 42,-93 93,-93zm-143 429c31,0 59,13 79,33 -16,-7 -34,-10 -53,-10 -63,0 -116,38 -137,93 0,-2 0,-3 0,-4 0,-62 50,-112 111,-112zm-723 -313c31,0 58,13 79,33 -17,-6 -35,-10 -54,-10 -62,0 -115,39 -137,93 0,-1 0,-3 0,-4 0,-62 50,-112 112,-112zm347 710c26,0 49,10 66,27 -13,-4 -27,-7 -41,-7 -56,0 -103,40 -113,92 -2,-7 -3,-14 -3,-21 0,-50 41,-91 91,-91zm-55 307c18,0 34,7 45,19 -9,-4 -18,-5 -28,-5 -39,0 -72,27 -79,64 -1,-4 -2,-9 -2,-15 0,-35 28,-63 64,-63zm-290 -141c26,0 48,10 66,26 -14,-5 -28,-7 -42,-7 -52,0 -97,29 -120,71 4,-50 46,-90 96,-90zm-58 162c32,0 61,11 84,30 -15,-5 -32,-7 -48,-7 -80,0 -147,55 -165,130 -2,-7 -2,-15 -2,-22 0,-73 59,-131 131,-131zm272 -670c41,0 80,12 113,32 -23,-6 -47,-10 -72,-10 -121,0 -222,83 -252,194 0,-2 0,-4 0,-6 0,-116 95,-210 211,-210zm-221 290c21,0 40,5 57,13 -1,0 -2,0 -3,0 -97,0 -176,79 -176,177 0,1 0,3 0,5 -9,-18 -13,-38 -13,-59 0,-75 60,-136 135,-136zm-1024 310c20,0 39,7 53,20 -7,-2 -15,-3 -22,-3 -37,0 -69,18 -88,46 23,5 44,14 61,28 -15,-4 -31,-6 -48,-6 -92,0 -167,71 -173,161 -4,-14 -7,-29 -7,-44 0,-78 63,-141 141,-141l3 0c9,-35 41,-61 80,-61zm-301 349c22,0 44,6 62,17 -7,-1 -14,-2 -21,-2 -82,0 -150,59 -165,136 -1,-8 -2,-16 -2,-25 0,-69 56,-126 126,-126zm697 -418c12,0 23,1 35,4 -93,17 -165,91 -179,183 5,0 10,0 15,0 39,0 75,10 105,29 -17,-4 -35,-6 -54,-6 -24,0 -47,3 -69,10l0 2 0 1c-1,-1 -1,-2 -2,-3 -98,29 -172,118 -178,225 -4,-17 -7,-35 -7,-53 0,-104 77,-189 177,-203 -2,-9 -3,-19 -3,-29 0,-88 72,-160 160,-160zm-226 -617c19,0 37,5 54,13 -73,3 -134,48 -162,110 13,-3 26,-4 40,-4 42,0 81,14 111,38 -23,-7 -47,-11 -73,-11 -96,0 -179,57 -217,138 6,-73 55,-134 123,-156 0,-1 0,-2 0,-3 0,-69 55,-125 124,-125zm328 157c35,0 68,12 94,32 -15,-4 -30,-6 -46,-6 -100,0 -180,81 -180,180 0,10 0,20 2,30 -15,-24 -24,-52 -24,-82 0,-85 69,-154 154,-154zm365 -267c54,0 103,19 141,51 -30,-13 -63,-19 -98,-19 -137,0 -250,109 -255,245 -5,-18 -7,-38 -7,-58 0,-121 98,-219 219,-219zm-257 -212c49,0 92,20 123,53 -28,-14 -59,-22 -93,-22 -92,0 -171,59 -200,142l-1 -2c0,-94 77,-171 171,-171zm-161 -200c40,0 77,14 105,39 -22,-7 -44,-11 -68,-11 -89,0 -166,56 -196,135 0,-2 0,-3 0,-4 0,-88 71,-159 159,-159zm-213 229c31,0 60,7 87,18 -8,0 -15,0 -23,0 -139,0 -254,100 -278,231 -1,-10 -2,-22 -2,-33 0,-119 96,-216 216,-216zm-391 -73c40,0 76,16 102,42 -23,-9 -48,-15 -74,-15 -77,0 -143,46 -172,112 2,-77 66,-139 144,-139zm-227 1008c42,0 82,12 115,34 -22,-7 -45,-10 -69,-10 -131,0 -239,98 -255,225 -2,-12 -3,-24 -3,-36 0,-118 95,-213 212,-213zm33 -391c57,0 109,19 150,52 -33,-13 -69,-20 -107,-20 -139,0 -255,96 -285,225 -1,-5 -1,-9 -1,-14 0,-134 109,-243 243,-243zm-34 -1048c41,0 80,10 114,28 -15,-2 -31,-4 -47,-4 -153,0 -280,111 -307,256 -2,-12 -3,-25 -3,-38 0,-134 109,-242 243,-242zm872 -544c21,0 39,8 53,22 -10,-3 -21,-5 -32,-5 -42,0 -79,26 -94,64 0,-3 0,-5 0,-7 0,-41 33,-74 73,-74zm-299 197c23,0 44,12 56,30 -14,-10 -32,-16 -51,-16 -28,0 -53,13 -69,34 8,-28 34,-48 64,-48zm-138 55c24,0 46,10 62,26 -12,-4 -25,-7 -39,-7 -53,0 -98,37 -111,86 -1,-5 -1,-10 -1,-16 0,-49 39,-89 89,-89z"/>
  </g>
 </g>
</svg>
