<svg width="40" height="40" viewBox="0 0 40 40" fill="none" xmlns="http://www.w3.org/2000/svg">
<path d="M15.2866 28.03L12.9282 30.3867L19.9999 37.4583L27.0716 30.3867L24.7132 28.03L19.9999 32.745L15.2866 28.03ZM24.7132 11.97L27.0716 9.61332L19.9999 2.54166L12.9282 9.61332L15.2866 11.97L19.9999 7.25666L24.7132 11.97Z" fill="white"/>
<path fill-rule="evenodd" clip-rule="evenodd" d="M20 15C21.3261 15 22.5979 15.5268 23.5355 16.4645C24.4732 17.4021 25 18.6739 25 20C25 21.3261 24.4732 22.5979 23.5355 23.5355C22.5979 24.4732 21.3261 25 20 25C18.6739 25 17.4021 24.4732 16.4645 23.5355C15.5268 22.5979 15 21.3261 15 20C15 18.6739 15.5268 17.4021 16.4645 16.4645C17.4021 15.5268 18.6739 15 20 15ZM20 18.3333C20.442 18.3333 20.866 18.5089 21.1785 18.8215C21.4911 19.134 21.6667 19.558 21.6667 20C21.6667 20.442 21.4911 20.866 21.1785 21.1785C20.866 21.4911 20.442 21.6667 20 21.6667C19.558 21.6667 19.134 21.4911 18.8215 21.1785C18.5089 20.866 18.3333 20.442 18.3333 20C18.3333 19.558 18.5089 19.134 18.8215 18.8215C19.134 18.5089 19.558 18.3333 20 18.3333Z" fill="white"/>
</svg>
