<?xml version="1.0" encoding="UTF-8"?>
<!DOCTYPE svg PUBLIC "-//W3C//DTD SVG 1.1//EN" "http://www.w3.org/Graphics/SVG/1.1/DTD/svg11.dtd">
<!-- Creator: CorelDRAW 2021 (64-Bit) -->
<svg xmlns="http://www.w3.org/2000/svg" xml:space="preserve" width="43.472mm" height="43.472mm" version="1.1" style="shape-rendering:geometricPrecision; text-rendering:geometricPrecision; image-rendering:optimizeQuality; fill-rule:evenodd; clip-rule:evenodd"
viewBox="0 0 167.3 167.3"
 xmlns:xlink="http://www.w3.org/1999/xlink"
 xmlns:xodm="http://www.corel.com/coreldraw/odm/2003">
 <defs>
  <style type="text/css">
   <![CDATA[
    .fil0 {fill:none}
    .fil1 {fill:white;fill-rule:nonzero}
   ]]>
  </style>
 </defs>
 <g id="Layer_x0020_1">
  <metadata id="CorelCorpID_0Corel-Layer"/>
  <rect class="fil0" width="167.3" height="167.3"/>
  <path class="fil1" d="M125.28 44.55c-0.86,-0.48 -1.7,-1 -2.52,-1.57 -2.37,-1.67 -4.54,-3.64 -6.46,-5.87 -4.83,-5.9 -6.63,-11.88 -7.29,-16.06l0.02 0c-0.55,-3.48 -0.33,-5.73 -0.28,-5.73l-21.97 0 0 90.74c0,1.22 0,2.42 -0.05,3.61 0,0.15 -0.02,0.28 -0.02,0.44 0,0.06 0,0.13 -0.02,0.2l0 0.05c-0.23,3.25 -1.21,6.4 -2.84,9.16 -1.63,2.76 -3.88,5.04 -6.54,6.66 -2.77,1.68 -5.91,2.57 -9.1,2.56 -10.23,0 -18.53,-8.91 -18.53,-19.92 0,-11.01 8.3,-19.93 18.53,-19.93 1.94,0 3.87,0.33 5.71,0.97l0.03 -23.9c-5.59,-0.77 -11.28,-0.3 -16.69,1.4 -5.41,1.69 -10.44,4.57 -14.76,8.44 -3.79,3.51 -6.97,7.7 -9.41,12.39 -0.93,1.71 -4.43,8.57 -4.85,19.71 -0.27,6.31 1.51,12.87 2.36,15.58l0 0.06c0.53,1.59 2.6,7.03 5.96,11.62 2.72,3.68 5.92,6.91 9.52,9.59l0 -0.06 0.05 0.06c10.63,7.71 22.43,7.21 22.43,7.21 2.04,-0.09 8.88,0 16.64,-3.93 8.61,-4.36 13.51,-10.85 13.51,-10.85 3.13,-3.88 5.62,-8.3 7.37,-13.07 1.99,-5.59 2.65,-12.28 2.65,-14.95l0 -48.15c0.27,0.17 3.82,2.68 3.82,2.68 0,0 5.12,3.5 13.09,5.78 5.72,1.62 13.43,1.97 13.43,1.97l0 -23.3c-2.7,0.32 -8.18,-0.59 -13.81,-3.58l0.01 -0.01z"/>
 </g>
</svg>
