<?xml version="1.0" encoding="UTF-8"?>
<!DOCTYPE svg PUBLIC "-//W3C//DTD SVG 1.1//EN" "http://www.w3.org/Graphics/SVG/1.1/DTD/svg11.dtd">
<!-- Creator: CorelDRAW 2021 (64-Bit) -->
<svg xmlns="http://www.w3.org/2000/svg" xml:space="preserve" width="43.472mm" height="43.472mm" version="1.1" style="shape-rendering:geometricPrecision; text-rendering:geometricPrecision; image-rendering:optimizeQuality; fill-rule:evenodd; clip-rule:evenodd"
viewBox="0 0 210.92 210.92"
 xmlns:xlink="http://www.w3.org/1999/xlink"
 xmlns:xodm="http://www.corel.com/coreldraw/odm/2003">
 <defs>
  <style type="text/css">
   <![CDATA[
    .fil0 {fill:none}
    .fil1 {fill:white;fill-rule:nonzero}
   ]]>
  </style>
 </defs>
 <g id="Layer_x0020_1">
  <metadata id="CorelCorpID_0Corel-Layer"/>
  <rect class="fil0" width="210.92" height="210.92"/>
  <path class="fil1" d="M190.59 50.81c-6.26,2.87 -12.99,4.81 -20.06,5.69 7.3,-4.52 12.75,-11.63 15.35,-20.01 -6.86,4.21 -14.36,7.18 -22.18,8.77 -5.26,-5.82 -12.23,-9.67 -19.82,-10.97 -7.59,-1.29 -15.39,0.04 -22.17,3.8 -6.78,3.76 -12.18,9.74 -15.35,17 -3.17,7.26 -3.93,15.4 -2.18,23.16 -13.89,-0.72 -27.48,-4.46 -39.88,-10.97 -12.41,-6.51 -23.35,-15.65 -32.12,-26.82 -3,5.36 -4.72,11.57 -4.72,18.18 -0,5.95 1.41,11.82 4.12,17.07 2.71,5.25 6.63,9.73 11.41,13.03 -5.55,-0.18 -10.97,-1.73 -15.82,-4.53l0 0.47c-0,8.35 2.79,16.44 7.9,22.91 5.11,6.46 12.22,10.9 20.12,12.55 -5.15,1.44 -10.54,1.65 -15.78,0.62 2.23,7.18 6.58,13.47 12.43,17.97 5.85,4.5 12.92,7 20.21,7.13 -12.37,10.06 -27.66,15.51 -43.39,15.49 -2.79,0 -5.57,-0.17 -8.34,-0.5 15.97,10.63 34.56,16.27 53.54,16.25 64.26,0 99.39,-55.1 99.39,-102.89 0,-1.55 -0.04,-3.12 -0.1,-4.67 6.83,-5.12 12.73,-11.45 17.42,-18.71l0.01 -0.02z"/>
 </g>
</svg>
