<?xml version="1.0" encoding="UTF-8"?>
<!DOCTYPE svg PUBLIC "-//W3C//DTD SVG 1.1//EN" "http://www.w3.org/Graphics/SVG/1.1/DTD/svg11.dtd">
<!-- Creator: CorelDRAW 2021 (64-Bit) -->
<svg xmlns="http://www.w3.org/2000/svg" xml:space="preserve" width="43.472mm" height="43.472mm" version="1.1" style="shape-rendering:geometricPrecision; text-rendering:geometricPrecision; image-rendering:optimizeQuality; fill-rule:evenodd; clip-rule:evenodd"
viewBox="0 0 187.08 187.08"
 xmlns:xlink="http://www.w3.org/1999/xlink"
 xmlns:xodm="http://www.corel.com/coreldraw/odm/2003">
 <defs>
  <style type="text/css">
   <![CDATA[
    .fil0 {fill:none}
    .fil1 {fill:white;fill-rule:nonzero}
   ]]>
  </style>
 </defs>
 <g id="Layer_x0020_1">
  <metadata id="CorelCorpID_0Corel-Layer"/>
  <rect class="fil0" width="187.08" height="187.08"/>
  <path class="fil1" d="M157.25 59.46c-0.76,-3 -2.24,-5.73 -4.3,-7.93 -2.06,-2.2 -4.63,-3.78 -7.45,-4.59 -10.38,-2.97 -51.96,-2.97 -51.96,-2.97 0,0 -41.59,0 -51.96,2.95 -2.82,0.81 -5.39,2.39 -7.45,4.59 -2.06,2.2 -3.55,4.93 -4.3,7.93 -2.78,11.05 -2.78,34.1 -2.78,34.1 0,0 0,23.05 2.78,34.08 1.53,6.09 6.04,10.89 11.75,12.52 10.38,2.97 51.96,2.97 51.96,2.97 0,0 41.59,0 51.96,-2.97 5.73,-1.62 10.23,-6.42 11.75,-12.52 2.78,-11.03 2.78,-34.08 2.78,-34.08 0,0 0,-23.05 -2.78,-34.08zm-76.92 55.23l0 -42.3 34.43 20.99 -34.43 21.31z"/>
 </g>
</svg>
